<svg width="181" height="181" viewBox="0 0 181 181" fill="none" xmlns="http://www.w3.org/2000/svg">
<g clip-path="url(#clip0_317_4569)">
<rect width="181" height="181" fill="#1EC777"/>
<path d="M55.4411 29.2747C56.3939 29.2598 57.9275 29.3788 59.0888 29.5575C60.1906 29.7213 61.4115 29.9148 61.7986 30.0042C62.2006 30.0786 62.6473 30.2275 62.8111 30.3019C62.9748 30.3764 63.2428 30.4508 63.4066 30.4508C63.5704 30.4508 63.9575 30.5551 64.2553 30.6891C64.568 30.8231 64.9998 31.0316 65.2231 31.1358C65.4613 31.2549 65.7293 31.3442 65.8186 31.3442C65.923 31.3442 66.6227 31.657 67.3522 32.0291C68.0817 32.4162 68.8559 32.8182 69.0644 32.9373C69.2728 33.0564 69.7196 33.3245 70.0471 33.5478C70.3896 33.7712 70.9999 34.188 71.4168 34.4708C71.8188 34.7537 72.6377 35.4237 73.2333 35.9597C73.8288 36.4957 74.5287 37.121 74.7818 37.3742C75.0498 37.6124 75.6007 38.2228 76.0027 38.7142C76.4196 39.2055 77.1043 40.0542 77.5212 40.6051C77.9527 41.1705 78.295 41.6318 78.2955 41.6473C78.2955 41.6771 78.6231 42.2577 79.0399 42.9575C79.4568 43.6572 79.8588 44.2527 79.9333 44.2975C80.0077 44.3421 80.8862 44.2826 81.8986 44.1784C82.9111 44.0742 86.1717 43.9551 89.1644 43.9104C93.5417 43.836 95.0455 43.8658 96.9066 44.0445C98.1721 44.1785 99.5867 44.3124 100.048 44.3273C100.51 44.3571 100.971 44.2975 101.09 44.2082C101.21 44.1188 101.418 43.8062 101.567 43.5382C101.716 43.2553 101.909 42.8979 102.013 42.7341C102.103 42.5703 102.55 41.8705 102.996 41.1708C103.428 40.471 104.247 39.3692 104.798 38.7142C105.349 38.059 106.093 37.2104 106.45 36.8382C106.808 36.466 107.537 35.7811 108.073 35.3345C108.609 34.8729 109.771 34.0242 110.679 33.4436C111.587 32.8629 112.719 32.1929 113.21 31.9547C113.701 31.7165 114.401 31.3889 114.773 31.2401C115.145 31.0763 115.696 30.838 115.994 30.704C116.307 30.57 116.694 30.4508 116.858 30.4508C117.021 30.4508 117.289 30.3764 117.453 30.3019C117.617 30.2275 118.064 30.0786 118.451 30.0042C118.853 29.9148 120.103 29.7064 121.25 29.5427C122.873 29.3044 123.811 29.2449 125.493 29.3045C126.684 29.3492 128.158 29.4533 128.769 29.5427C129.379 29.632 130.213 29.7809 130.63 29.8702C131.032 29.9596 131.747 30.1382 132.193 30.2573C132.64 30.3764 133.235 30.57 133.489 30.6891C133.757 30.8082 134.084 30.8975 134.203 30.8975C134.322 30.8975 135.007 31.1655 135.722 31.493C136.451 31.8355 137.136 32.163 137.255 32.2375C137.375 32.3268 137.643 32.4609 137.851 32.5502C138.059 32.6396 138.715 33.0416 139.295 33.4436C139.891 33.8456 140.412 34.173 140.457 34.173C140.501 34.173 141.156 34.6644 141.901 35.2749C142.66 35.8704 143.851 36.9574 144.551 37.6869C145.251 38.4165 146.219 39.5479 146.695 40.203C147.186 40.8581 147.767 41.6473 148.005 41.9451C148.228 42.2576 148.422 42.5404 148.422 42.5853C148.422 42.6299 148.571 42.8831 148.75 43.1362C148.943 43.4042 149.196 43.821 149.33 44.0741C149.464 44.3124 149.762 44.893 150 45.3397C150.239 45.7864 150.626 46.6201 150.849 47.2008C151.087 47.7666 151.34 48.377 151.43 48.5408C151.519 48.7046 151.653 49.0321 151.713 49.2853C151.772 49.5235 151.891 49.9255 151.966 50.1786C152.055 50.4168 152.189 50.8635 152.278 51.1464C152.353 51.4292 152.457 51.8312 152.502 52.0397C152.531 52.2481 152.636 52.7097 152.725 53.0819C152.814 53.4541 152.978 54.3922 153.112 55.1664C153.246 56.0448 153.335 57.5784 153.335 59.1864C153.335 60.8092 153.246 62.4024 153.097 63.4297C152.963 64.3229 152.799 65.1864 152.725 65.3206C152.651 65.4695 152.591 65.7226 152.591 65.8864C152.591 66.0501 152.799 66.333 153.067 66.5117C153.335 66.6904 154.229 67.42 155.048 68.1347C155.867 68.8493 156.909 69.817 157.355 70.3084C157.817 70.7848 158.591 71.6335 159.083 72.2141C159.559 72.7799 160.14 73.4946 160.348 73.7775C160.557 74.0603 161.033 74.7303 161.39 75.2663C161.748 75.8023 162.12 76.3681 162.224 76.5319C162.328 76.6957 162.656 77.2615 162.969 77.7974C163.266 78.3334 163.802 79.331 164.145 80.0308C164.487 80.7305 165.008 81.9366 165.306 82.7108C165.619 83.485 165.946 84.3485 166.065 84.6017C166.185 84.8697 166.289 85.227 166.289 85.3908C166.289 85.5546 166.378 85.9119 166.497 86.165C166.616 86.433 166.884 87.4306 167.093 88.3685C167.286 89.3065 167.569 90.8252 167.703 91.7185C167.852 92.8352 167.927 94.4581 167.927 96.8552C167.927 99.2374 167.852 100.786 167.703 101.694C167.584 102.439 167.405 103.511 167.316 104.076C167.227 104.642 167.063 105.416 166.959 105.789C166.855 106.161 166.661 106.89 166.512 107.426C166.378 107.962 166.199 108.528 166.125 108.692C166.051 108.856 165.931 109.183 165.857 109.436C165.783 109.689 165.589 110.211 165.425 110.627C165.276 111.029 164.949 111.804 164.711 112.34C164.472 112.876 164.011 113.843 163.668 114.499C163.341 115.154 162.805 116.151 162.477 116.702C162.165 117.268 161.837 117.834 161.748 117.968C161.658 118.117 161.45 118.444 161.256 118.712C161.078 118.965 160.929 119.218 160.929 119.263C160.929 119.308 160.735 119.591 160.512 119.888C160.274 120.201 159.693 120.99 159.202 121.645C158.725 122.3 157.742 123.506 157.028 124.325C156.328 125.144 155.316 126.216 154.794 126.722C154.288 127.214 153.321 128.092 152.665 128.658C152.01 129.239 150.67 130.296 149.688 131.025C148.705 131.755 147.678 132.469 147.41 132.618C147.157 132.767 146.933 132.931 146.933 132.991C146.948 133.065 147.767 133.943 148.765 134.971C149.762 135.998 150.983 137.323 151.474 137.934C151.966 138.544 152.695 139.452 153.097 139.944C153.484 140.45 154.184 141.358 154.646 141.969C155.107 142.579 155.747 143.487 156.075 143.978C156.403 144.47 156.834 145.065 157.028 145.318C157.236 145.572 157.46 145.899 157.519 146.063C157.594 146.227 157.743 146.495 157.832 146.658C157.936 146.822 158.16 147.15 158.338 147.403C158.502 147.656 159.053 148.549 159.544 149.413C160.035 150.276 160.661 151.378 160.929 151.87C161.212 152.361 162.031 153.969 162.76 155.443C163.49 156.917 164.219 158.391 164.353 158.718C164.502 159.046 164.77 159.627 164.934 160.014C165.113 160.416 165.366 161.011 165.529 161.354C165.678 161.711 166.021 162.53 166.289 163.185C166.557 163.84 166.854 164.57 166.959 164.823C167.063 165.076 167.331 165.746 167.554 166.312C167.778 166.878 168.046 167.592 168.15 167.875C168.254 168.158 168.448 168.694 168.597 169.066C168.731 169.438 168.939 169.96 169.058 170.213C169.177 170.481 169.267 170.823 169.267 170.957C169.267 171.106 169.311 171.3 169.386 171.374C169.445 171.448 169.624 171.925 169.773 172.416C169.922 172.908 170.13 173.548 170.234 173.831C170.339 174.114 170.502 174.59 170.592 174.873C170.696 175.156 170.86 175.722 170.979 176.138C171.083 176.54 171.276 177.181 171.396 177.553C171.515 177.925 171.723 178.655 171.872 179.191C172.006 179.727 172.215 180.456 172.319 180.828C172.423 181.201 172.616 181.871 172.736 182.317C172.87 182.764 173.063 183.508 173.197 183.955C173.316 184.402 173.495 185.146 173.599 185.593C173.689 186.04 173.867 186.71 173.971 187.082C174.091 187.454 174.18 187.886 174.18 188.05C174.18 188.213 174.284 188.675 174.388 189.092C174.507 189.494 174.686 190.164 174.79 190.581C174.88 190.983 175.014 191.623 175.073 191.995C175.133 192.367 175.297 193.201 175.445 193.856C175.579 194.511 175.788 195.613 175.922 196.313C176.041 197.013 176.19 197.951 176.264 198.397C176.324 198.844 176.458 199.722 176.547 200.333C176.651 200.943 176.83 201.986 176.949 202.641C177.068 203.296 177.158 204.085 177.158 204.383C177.158 204.695 177.247 205.604 177.366 206.393C177.485 207.197 177.649 208.998 177.738 210.383C177.828 211.768 177.902 214.358 177.902 216.115C177.902 217.872 177.828 220.18 177.738 221.252C177.649 222.324 177.485 223.694 177.366 224.304C177.247 224.914 177.083 225.689 176.994 226.016C176.905 226.344 176.785 226.85 176.711 227.133C176.651 227.416 176.503 227.892 176.398 228.175C176.279 228.458 175.996 229.068 175.773 229.515C175.535 229.962 175.237 230.528 175.103 230.781C174.969 231.034 174.418 231.659 173.882 232.195C173.346 232.731 172.617 233.342 172.244 233.55C171.872 233.744 171.232 234.041 170.83 234.205C170.234 234.443 169.728 234.503 168.224 234.503C166.497 234.503 166.304 234.473 165.544 234.101C165.098 233.878 164.666 233.684 164.577 233.684C164.487 233.684 164.189 233.907 163.907 234.19C163.624 234.458 163.043 234.92 162.641 235.203C162.224 235.486 161.599 235.858 161.227 236.037C160.854 236.215 160.125 236.424 159.589 236.498C159.053 236.572 158.249 236.602 157.802 236.558C157.355 236.513 156.685 236.379 156.313 236.245C155.941 236.111 155.301 235.798 154.899 235.53C154.482 235.277 153.976 234.875 153.767 234.637C153.559 234.399 153.201 233.863 153.008 233.461C152.799 233.044 152.531 232.418 152.427 232.046C152.308 231.674 152.219 230.974 152.234 230.483C152.234 229.992 152.308 229.396 152.383 229.158C152.517 228.741 152.502 228.726 152.144 228.8C151.936 228.845 151.385 229.024 150.909 229.202C150.387 229.396 149.703 229.515 149.122 229.515C148.586 229.515 147.856 229.396 147.38 229.232C146.933 229.069 146.293 228.741 145.965 228.518C145.638 228.279 145.132 227.788 144.834 227.431C144.551 227.058 144.194 226.463 144.06 226.091C143.926 225.718 143.747 224.825 143.673 224.081C143.583 223.336 143.509 222.175 143.509 221.475C143.509 220.775 143.613 219.242 143.732 218.051C143.836 216.86 144.015 215.49 144.104 214.998C144.194 214.507 144.372 213.599 144.506 212.988C144.64 212.378 144.849 211.693 144.953 211.455C145.057 211.232 145.147 210.919 145.147 210.755C145.147 210.562 145.057 210.472 144.908 210.487C144.789 210.517 144.477 210.904 144.223 211.351C143.97 211.797 143.509 212.572 143.196 213.063C142.883 213.554 142.243 214.492 141.767 215.132C141.29 215.788 140.65 216.681 139.757 217.976L139.846 219.242C139.906 219.942 140.04 223.053 140.159 226.165C140.308 229.768 140.382 235.828 140.382 242.841C140.382 248.9 140.308 254.96 140.233 256.315C140.144 257.67 140.01 259.844 139.935 261.154C139.846 262.464 139.742 263.849 139.682 264.251C139.578 264.861 139.593 264.951 139.816 264.951C139.965 264.951 140.263 265.04 140.486 265.159C140.725 265.278 141.171 265.472 141.499 265.591C141.663 265.658 142.005 265.784 142.424 265.937L145.189 266.942C145.608 267.095 145.951 267.221 146.114 267.288C146.442 267.407 146.889 267.601 147.112 267.72C147.35 267.839 147.588 267.928 147.678 267.928C147.767 267.928 148.229 268.122 148.72 268.375C149.211 268.628 149.613 268.792 149.613 268.747C149.614 268.703 150.224 268.971 150.953 269.343C151.683 269.715 152.383 270.013 152.472 270.013C152.576 270.013 152.725 270.072 152.814 270.147C152.904 270.206 153.469 270.534 154.08 270.847C154.69 271.159 155.703 271.725 156.313 272.097C156.924 272.469 157.534 272.827 157.683 272.916C157.817 273.005 158.413 273.408 159.023 273.839C159.619 274.271 160.542 274.941 161.078 275.328C161.614 275.715 162.611 276.579 163.296 277.234C163.981 277.889 164.815 278.827 165.142 279.318C165.485 279.81 165.872 280.45 166.021 280.733C166.17 281.016 166.512 281.864 166.78 282.594C167.167 283.666 167.257 284.157 167.242 285.051C167.242 286.018 167.167 286.316 166.706 287.284C166.304 288.133 165.946 288.594 165.232 289.249C164.636 289.785 163.936 290.232 163.385 290.455C162.894 290.649 162.254 290.887 161.971 290.991C161.688 291.081 160.944 291.2 160.333 291.244C159.559 291.304 159.157 291.408 159.023 291.587C158.919 291.721 158.844 292.063 158.844 292.346C158.844 292.644 158.636 293.314 158.338 293.909C158.011 294.579 157.549 295.22 157.028 295.711C156.596 296.128 156.001 296.589 155.718 296.738C155.435 296.902 154.958 297.111 154.675 297.215C154.393 297.319 153.737 297.513 153.216 297.632C152.71 297.751 151.742 297.855 151.057 297.855C150.387 297.855 149.137 297.721 148.273 297.557C147.41 297.393 146.442 297.2 146.114 297.126C145.787 297.051 145.281 296.902 144.998 296.798C144.715 296.694 144.134 296.485 142.988 296.024L142.079 296.902C141.588 297.379 140.948 297.885 140.665 298.019C140.382 298.153 139.891 298.376 139.563 298.51C139.221 298.644 138.193 298.793 137.181 298.868C136.02 298.942 134.605 298.912 133.161 298.793C131.925 298.704 130.689 298.54 130.407 298.466C130.124 298.376 129.662 298.302 129.394 298.302C129.141 298.302 128.501 298.197 127.98 298.078C127.473 297.959 126.714 297.781 126.312 297.691C125.895 297.602 125.195 297.438 124.749 297.319C124.302 297.2 123.558 296.992 123.111 296.872C122.664 296.753 122.099 296.575 121.845 296.485C121.592 296.411 121.161 296.277 120.878 296.217C120.595 296.158 119.523 295.83 118.495 295.488C117.468 295.16 116.515 294.818 116.366 294.728C116.232 294.654 116.054 294.579 115.964 294.579C115.875 294.579 115.592 294.49 115.324 294.371C115.071 294.267 114.55 294.058 114.178 293.909C113.805 293.775 113.374 293.597 113.21 293.522C113.046 293.463 112.302 293.165 111.572 292.867C110.843 292.555 109.89 292.167 109.488 291.974C109.071 291.78 108.505 291.527 108.222 291.408C107.939 291.289 107.195 290.947 106.584 290.664C105.974 290.381 104.693 289.696 103.755 289.13C102.356 288.311 101.775 287.85 100.584 286.629C99.7802 285.795 99.1399 285.065 99.1399 284.976C99.1399 284.887 99.0654 284.753 98.9612 284.664C98.857 284.559 98.5593 284.068 98.3062 283.547C98.0531 283.026 97.7701 282.4 97.6957 282.147C97.6063 281.894 97.4277 281.299 97.2788 280.807C97.0704 280.048 97.0406 279.393 97.1001 276.341C97.1299 274.375 97.2341 271.695 97.3234 270.385C97.4277 269.075 97.5617 266.499 97.651 264.653C97.7404 262.807 97.8595 258.489 97.9042 255.05C97.9637 250.389 97.934 247.352 97.7404 243.138C97.6064 240.027 97.4724 236.915 97.4277 234.95L96.9066 234.965C96.6237 234.965 95.6857 235.054 94.8221 235.158C93.7353 235.307 92.1868 235.337 89.7599 235.277C87.8096 235.232 86.0528 235.128 85.7697 235.039C85.5167 234.95 85.204 234.905 85.0997 234.95C84.9955 234.994 84.8764 235.515 84.802 236.334C84.7424 237.049 84.6233 239.506 84.534 241.798C84.4595 244.091 84.3553 249.243 84.3107 253.263C84.2362 258.995 84.2809 261.794 84.4893 266.291C84.6233 269.447 84.7722 273.735 84.802 275.819C84.8466 278.455 84.8169 279.884 84.6829 280.509C84.5935 281.001 84.4148 281.641 84.2957 281.924C84.1766 282.207 83.9682 282.683 83.8342 282.966C83.7002 283.249 83.3726 283.785 83.1344 284.157C82.8813 284.529 82.2857 285.304 81.7944 285.899C81.303 286.48 80.4097 287.373 79.8142 287.865C79.2335 288.371 78.4593 288.951 78.102 289.175C77.7595 289.398 77.3426 289.651 77.1788 289.741C77.015 289.83 76.345 290.187 75.6899 290.515C75.0348 290.857 74.2308 291.244 73.9033 291.378C73.5757 291.512 73.1142 291.706 72.861 291.825C72.6079 291.929 72.0422 292.167 71.5955 292.346C71.1488 292.54 70.4044 292.852 69.9577 293.046C69.5111 293.24 69.0048 293.463 68.8411 293.522C68.6773 293.597 68.0073 293.865 67.3522 294.133C66.6971 294.386 65.9824 294.699 65.7442 294.818C65.5209 294.937 65.2082 295.026 65.0444 295.026C64.8806 295.026 64.7169 295.086 64.6722 295.175C64.6275 295.264 64.4786 295.324 64.3298 295.324C64.1958 295.324 63.8831 295.428 63.6299 295.547C63.3768 295.681 63.0791 295.771 62.9599 295.771C62.8408 295.771 62.6026 295.86 62.4388 295.994C62.2751 296.113 62.022 296.217 61.8731 296.217C61.7391 296.217 61.3966 296.307 61.1286 296.426C60.8755 296.545 59.9524 296.843 59.0888 297.096C58.2253 297.364 57.332 297.632 57.0788 297.706C56.8257 297.781 56.528 297.855 56.4088 297.855C56.2897 297.855 55.8431 297.944 55.4411 298.064C55.0242 298.183 54.0862 298.376 53.3566 298.51C52.6271 298.644 51.0042 298.808 49.7833 298.882C48.3837 298.972 46.8502 298.972 45.6889 298.882C44.6615 298.793 43.4555 298.629 43.0089 298.51C42.5622 298.376 41.788 298.093 41.2966 297.855C40.8053 297.632 40.046 297.14 39.6142 296.753C39.0336 296.232 38.7507 296.083 38.4976 296.158C38.3189 296.202 37.9317 296.322 37.6489 296.426C37.366 296.53 36.8895 296.709 36.6066 296.813C36.3238 296.902 35.8473 297.051 35.5644 297.111C35.2815 297.17 34.3137 297.379 33.4055 297.542C32.4229 297.736 31.202 297.855 30.3533 297.855C29.5791 297.84 28.5369 297.751 28.0455 297.647C27.5542 297.528 26.7502 297.23 26.2589 296.991C25.7675 296.738 24.9784 296.143 24.5168 295.666C24.0553 295.19 23.4599 294.416 23.2216 293.939C22.9685 293.478 22.76 292.972 22.76 292.823C22.76 292.689 22.6707 292.316 22.5665 292.019C22.4771 291.721 22.3282 291.408 22.2389 291.334C22.1495 291.244 21.7177 291.155 21.2711 291.11C20.8244 291.081 20.214 290.976 19.9311 290.902C19.6482 290.813 18.9782 290.545 18.4422 290.292C17.9062 290.053 17.0724 289.473 16.5811 289.026C16.06 288.55 15.524 287.894 15.2857 287.418C15.0624 286.971 14.8094 286.271 14.7498 285.869C14.6605 285.378 14.6903 284.738 14.8094 284.008C14.9136 283.398 15.1071 282.549 15.2411 282.147C15.3751 281.73 15.6432 281.06 15.8516 280.658C16.0601 280.241 16.5662 279.482 16.9533 278.946C17.3553 278.41 18.0402 277.636 18.472 277.219C18.9038 276.802 19.6631 276.132 20.1544 275.73C20.6458 275.313 21.5242 274.643 22.09 274.226C22.6558 273.81 23.6086 273.184 24.1744 272.812C24.7402 272.455 25.3209 272.112 25.44 272.053C25.5591 271.993 25.8569 271.814 26.11 271.651C26.3631 271.502 26.7502 271.264 27.0033 271.115C27.2564 270.981 27.8818 270.653 28.4178 270.385C28.9538 270.117 29.9215 269.655 30.5766 269.343C31.2317 269.045 32.274 268.598 32.8844 268.345C33.4949 268.107 34.1946 267.809 34.4477 267.705C34.7009 267.601 35.1624 267.407 35.49 267.288C35.8175 267.154 36.562 266.901 37.1277 266.693C37.6935 266.499 38.4082 266.261 38.6911 266.157C38.9032 266.079 39.1991 265.984 39.4406 265.91L39.8771 265.778C40.1186 265.704 40.4145 265.609 40.6266 265.531C40.9095 265.442 41.4455 265.234 42.4877 264.847L42.4431 263.149C42.4133 262.211 42.2942 260.439 42.1751 259.218C42.056 257.983 41.9666 256.315 41.9666 255.496C41.9666 254.677 41.9072 252.801 41.8327 251.327C41.7434 249.853 41.6541 246.563 41.6094 244.032C41.5647 241.501 41.5944 236.706 41.6689 233.386C41.7582 230.066 41.8922 225.852 41.9518 224.006C42.0262 222.16 42.1751 220.076 42.4877 218.051L41.8774 217.425C41.5349 217.068 40.6863 215.996 39.9716 215.028C39.2718 214.075 38.6911 213.242 38.6911 213.167C38.6911 213.108 38.572 212.944 38.4231 212.78C38.2891 212.631 37.8275 211.827 37.4255 210.993C36.9491 210.041 36.5918 209.475 36.4131 209.46C36.2444 209.43 36.16 209.514 36.16 209.713C36.16 209.877 36.2195 210.04 36.3089 210.085C36.3982 210.13 36.4577 210.308 36.4577 210.487C36.4577 210.681 36.562 211.023 36.6811 211.276C36.8151 211.529 36.9044 211.842 36.9044 211.976C36.9044 212.125 36.9938 212.631 37.1129 213.093C37.232 213.569 37.4106 214.358 37.5 214.85C37.5893 215.341 37.7383 216.219 37.8127 216.785C37.9021 217.351 38.0211 218.423 38.0955 219.167C38.1551 219.912 38.1997 221.371 38.17 222.443C38.1402 223.515 38.021 224.676 37.9168 225.048C37.7977 225.421 37.5596 226.016 37.3809 226.388C37.2022 226.761 36.8002 227.297 36.5024 227.595C36.1897 227.892 35.5346 228.369 35.0433 228.637C34.1798 229.113 34.0904 229.128 32.5122 229.128C31.0531 229.128 30.7851 229.083 30.0109 228.726C29.5498 228.503 29.163 228.339 29.1474 228.354C29.1474 228.384 29.1175 228.994 29.0878 229.738C29.058 230.796 28.9537 231.257 28.6411 231.972C28.4178 232.463 28.0307 233.133 27.7776 233.461C27.5393 233.788 27.0481 234.309 26.7205 234.622C26.3781 234.92 25.6335 235.411 25.0678 235.679C24.368 236.022 23.7129 236.23 23.0578 236.29C22.5218 236.349 21.688 236.319 21.1967 236.245C20.6607 236.156 19.9758 235.902 19.4844 235.605C19.0378 235.337 18.2785 234.771 17.802 234.324C17.1916 233.759 16.8789 233.565 16.6854 233.639C16.5514 233.684 16.3727 233.788 16.2833 233.848C16.194 233.922 15.7473 234.071 15.2709 234.205C14.8094 234.324 14.1393 234.428 13.7969 234.428C13.4395 234.428 12.6802 234.324 12.1144 234.205C11.5487 234.086 10.834 233.878 10.5511 233.729C10.2682 233.58 9.65777 233.193 9.21111 232.865C8.77933 232.538 8.04974 231.838 7.61797 231.302C7.18619 230.766 6.59074 229.858 6.32275 229.292C6.03986 228.726 5.68247 227.848 5.51869 227.356C5.35492 226.865 5.16136 226.195 5.07203 225.867C4.98269 225.54 4.81897 224.766 4.68498 224.155C4.55098 223.545 4.35733 222.205 4.22333 221.177C4.07445 219.897 4 217.931 4 214.924C4 212.199 4.08933 209.549 4.22333 207.926C4.35733 206.497 4.55089 204.487 4.67 203.46C4.804 202.432 4.89333 201.42 4.89333 201.182C4.89334 200.958 4.99762 200.229 5.10183 199.544C5.22095 198.874 5.39956 197.817 5.48889 197.206C5.57822 196.596 5.75698 195.554 5.87609 194.898C6.01008 194.243 6.20364 193.201 6.32275 192.591C6.44186 191.98 6.65031 190.968 6.76942 190.357C6.90342 189.747 7.08203 188.973 7.15647 188.645C7.2458 188.318 7.37987 187.782 7.43942 187.454C7.51386 187.126 7.61797 186.561 7.69241 186.188C7.76686 185.816 7.90095 185.221 8.00517 184.848C8.10939 184.476 8.27311 183.836 8.39222 183.434C8.49644 183.017 8.70489 182.258 8.83888 181.722C8.98777 181.186 9.18133 180.456 9.28555 180.084C9.38977 179.712 9.55356 179.116 9.65777 178.744C9.762 178.372 9.92578 177.806 10.03 177.478C10.1342 177.151 10.3278 176.511 10.4618 176.064C10.5959 175.617 10.9978 174.307 11.37 173.161C11.7422 172.014 12.1144 170.957 12.1889 170.808C12.2782 170.674 12.3378 170.451 12.3378 170.332C12.3378 170.213 12.4272 169.885 12.5463 169.617C12.6654 169.364 13.0525 168.366 13.395 167.428C13.7374 166.491 14.0947 165.523 14.1989 165.27C14.251 165.143 14.3255 164.957 14.4055 164.756L14.8856 163.55C14.9656 163.349 15.0401 163.163 15.0922 163.036C15.1964 162.783 15.3602 162.426 15.4346 162.217C15.524 162.009 15.7027 161.577 15.8367 161.25C15.9707 160.922 16.2089 160.386 16.3578 160.058C16.5067 159.731 17.0725 158.525 17.6233 157.378C18.1742 156.232 18.8591 154.818 19.142 154.252C19.4249 153.686 19.8716 152.808 20.1396 152.316C20.4076 151.825 20.7947 151.14 20.9883 150.783C21.1818 150.425 21.4051 150.023 21.4944 149.889C21.5838 149.755 21.8816 149.234 22.1644 148.743C22.4473 148.252 22.76 147.716 22.8642 147.552C22.9684 147.388 23.0876 147.15 23.1472 147.031C23.2069 146.911 23.5939 146.301 24.0107 145.691C24.4275 145.08 24.8295 144.455 24.9189 144.321C24.9933 144.187 25.4996 143.443 26.0207 142.683C26.5567 141.924 27.867 140.197 28.9538 138.842C30.0407 137.487 31.6338 135.685 32.4974 134.822C33.3609 133.958 34.0755 133.139 34.0755 132.991C34.0755 132.857 33.9266 132.693 33.7331 132.648C33.5545 132.589 33.1822 132.395 32.9142 132.201C32.6611 132.008 32.408 131.844 32.3633 131.844C32.3186 131.844 31.9315 131.591 31.4998 131.263C31.0829 130.951 30.4575 130.519 30.13 130.296C29.8024 130.072 29.0282 129.477 28.4178 128.971C27.8073 128.464 26.4376 127.214 25.3953 126.186C24.3383 125.159 22.9983 123.76 22.4027 123.075C21.8221 122.39 20.9883 121.348 20.5416 120.767C20.095 120.186 19.6631 119.576 19.5589 119.412C19.4695 119.248 18.9633 118.444 18.4274 117.625C17.8914 116.806 17.0575 115.303 16.5513 114.275C16.06 113.248 15.524 112.146 15.3752 111.819C15.2412 111.491 14.988 110.881 14.8391 110.479C14.6753 110.062 14.3627 109.168 14.1394 108.469C13.9012 107.769 13.6182 106.801 13.4842 106.31C13.3502 105.818 13.1419 104.985 13.0227 104.449C12.9036 103.913 12.6803 102.811 12.5463 101.992C12.3229 100.816 12.2783 99.6841 12.2783 96.5574C12.2783 93.4159 12.3229 92.3439 12.5313 91.2719C12.6802 90.5274 12.9036 89.4256 13.0376 88.8152C13.1716 88.2048 13.3502 87.4305 13.4544 87.103C13.5587 86.7754 13.7224 86.2096 13.8267 85.8374C13.9309 85.4652 14.0948 84.9143 14.2139 84.6017C14.333 84.3039 14.5414 83.7679 14.6754 83.4106C14.8094 83.0681 15.0923 82.3832 15.3007 81.8919C15.5092 81.4005 16.0452 80.2987 16.4918 79.4352C16.9236 78.5717 17.5935 77.3954 17.9657 76.8297C18.338 76.249 18.9187 75.4152 19.2463 74.9686C19.5887 74.5219 20.1247 73.8222 20.4522 73.4202C20.7798 73.0182 21.5541 72.11 22.1794 71.4102C22.7899 70.7104 23.8767 69.6235 24.5765 69.013C25.2762 68.4026 25.9761 67.7921 26.125 67.673C26.2739 67.5538 26.7651 67.1518 27.1968 66.7797C27.9264 66.1544 27.9711 66.0799 27.8818 65.5886C27.8371 65.3056 27.6882 64.5612 27.5691 63.9508C27.3904 63.1021 27.3309 61.8961 27.3309 59.0375C27.316 56.03 27.3755 55.0324 27.5691 54.273C27.6882 53.737 27.8371 53.0968 27.8668 52.8586C27.8966 52.6055 28.0158 52.0694 28.12 51.6675C28.2242 51.2506 28.3582 50.789 28.4178 50.6253C28.4773 50.4614 28.6412 49.9552 28.7751 49.5086C28.9091 49.0619 29.1325 48.4217 29.2516 48.0941C29.3856 47.7666 29.5791 47.2901 29.6833 47.0519C29.8024 46.7988 30.0555 46.2628 30.2491 45.8608C30.4426 45.4439 30.8149 44.7144 31.0829 44.223C31.3658 43.7317 31.9316 42.7937 32.3485 42.1386C32.7803 41.4835 33.6289 40.3072 34.2542 39.533C34.8796 38.7588 35.9367 37.5826 36.6364 36.9275C37.3213 36.2724 38.2444 35.4536 38.6911 35.1112C39.1377 34.7687 39.8375 34.2625 40.2544 33.9945C40.6564 33.7116 41.1031 33.4435 41.2222 33.384C41.3413 33.3244 41.6838 33.1309 41.9666 32.9523C42.2495 32.7885 43.0237 32.3716 43.6789 32.0291C44.334 31.7016 45.1082 31.3442 45.3911 31.2251C45.674 31.1209 46.21 30.9274 46.5822 30.7934C46.9544 30.6743 47.6244 30.4658 48.0711 30.3467C48.5177 30.2127 49.1877 30.0489 49.56 29.9893C49.9322 29.9149 51.034 29.7214 52.0166 29.5725C52.9993 29.4087 54.5328 29.2896 55.4411 29.2747Z" fill="#0D592E"/>
<path d="M84.3248 143.623C83.4166 143.682 82.2553 143.801 81.7193 143.891C81.1833 143.965 80.0517 144.144 79.1882 144.278C78.3246 144.397 76.5826 144.754 75.3171 145.037C74.0515 145.335 72.8902 145.633 72.7413 145.707C72.6073 145.782 72.1011 145.916 71.6395 146.005C71.1631 146.094 70.4931 146.288 70.1506 146.452C69.7933 146.6 69.4658 146.734 69.4062 146.734C69.3318 146.734 68.6469 146.988 67.8726 147.3C67.0984 147.613 65.7882 148.208 64.9693 148.596C64.1504 148.998 62.87 149.682 62.1404 150.129C61.4109 150.576 60.1602 151.38 59.386 151.901C58.6118 152.422 57.3462 153.405 56.5869 154.075C55.8126 154.745 54.7704 155.772 54.2642 156.338C53.7431 156.918 53.1327 157.618 52.8796 157.901C52.6413 158.184 52.0458 158.988 51.5396 159.688C51.0482 160.388 50.3484 161.46 49.9762 162.07C49.6189 162.68 49.0084 163.827 48.6362 164.601C48.264 165.375 47.862 166.254 47.7429 166.537C47.6089 166.819 47.4005 167.4 47.2665 167.802C47.1325 168.219 46.8198 169.157 46.5815 169.887C46.3582 170.631 46.0605 171.629 45.9265 172.12C45.8073 172.611 45.5691 173.624 45.4053 174.353C45.2416 175.098 45.0331 176.333 44.9438 177.108C44.8544 177.882 44.7353 179.475 44.6758 180.636C44.6162 181.798 44.6162 183.912 44.6907 185.326C44.7502 186.741 44.8991 188.706 45.0182 189.689C45.1373 190.671 45.3756 192.19 45.5393 193.083C45.7031 193.962 46.0753 195.466 46.3582 196.433C46.6411 197.386 46.9389 198.28 47.0133 198.399C47.0878 198.518 47.2218 198.92 47.326 199.292C47.4153 199.664 47.862 200.766 48.2938 201.749C48.7404 202.731 49.2764 203.878 49.4849 204.28C49.7082 204.697 50.1251 205.426 50.4229 205.918C50.7207 206.409 51.3162 207.347 51.7629 208.002C52.2096 208.657 52.7158 209.372 52.8944 209.58C53.0731 209.789 53.4007 210.221 53.6538 210.533C53.9069 210.846 54.4727 211.546 54.9342 212.082C55.3958 212.618 56.3636 213.63 57.0931 214.33C57.8227 215.03 59.0733 216.131 59.8624 216.787C60.6515 217.442 61.7533 218.29 62.3191 218.677C62.87 219.079 63.674 219.615 64.076 219.883C64.4929 220.151 65.4309 220.717 66.1604 221.134C66.89 221.536 68.1555 222.191 68.9595 222.563C69.7486 222.951 71.0886 223.531 71.9224 223.874C72.7711 224.201 74.126 224.693 74.9449 224.961C75.7637 225.229 76.9697 225.586 77.6249 225.765C78.28 225.928 79.6795 226.241 80.7515 226.449C81.8235 226.658 83.8633 226.971 85.2926 227.134C87.2282 227.373 88.7766 227.462 91.3226 227.462C93.8835 227.462 95.4617 227.387 97.5759 227.134C99.1244 226.956 100.837 226.717 101.373 226.598C101.909 226.479 102.906 226.286 103.606 226.167C104.306 226.047 105.482 225.765 106.211 225.511C106.941 225.273 108.251 224.812 109.115 224.484C109.978 224.157 111.348 223.591 112.167 223.204C112.986 222.831 113.76 222.444 113.879 222.37C113.998 222.281 114.341 222.102 114.624 221.953C114.907 221.819 115.8 221.298 116.604 220.807C117.408 220.315 118.316 219.749 118.629 219.541C118.941 219.333 119.477 218.99 119.82 218.767C120.147 218.529 120.549 218.231 120.698 218.097C120.847 217.948 121.309 217.561 121.696 217.233C122.098 216.906 122.768 216.34 123.17 215.983C123.587 215.625 124.629 214.613 125.463 213.749C126.311 212.886 127.294 211.814 127.622 211.367C127.964 210.935 128.649 209.982 129.14 209.283C129.632 208.568 130.242 207.645 130.495 207.243C130.763 206.841 131.255 205.977 131.612 205.322C131.969 204.667 132.475 203.655 132.743 203.089C133.011 202.508 133.428 201.555 133.681 200.975C133.92 200.379 134.128 199.783 134.128 199.664C134.128 199.545 134.262 199.084 134.426 198.667C134.59 198.235 134.932 197.074 135.185 196.091C135.423 195.108 135.766 193.441 135.93 192.369C136.093 191.312 136.302 189.793 136.376 189.019C136.451 188.245 136.525 186.026 136.525 184.105C136.525 182.185 136.466 180.011 136.376 179.267C136.302 178.537 136.123 177.123 135.989 176.14C135.855 175.157 135.647 173.951 135.513 173.46C135.394 172.969 135.17 172.06 135.021 171.45C134.873 170.839 134.619 169.872 134.426 169.291C134.247 168.725 133.964 167.877 133.801 167.43C133.637 166.983 133.369 166.283 133.19 165.867C133.011 165.465 132.535 164.482 132.133 163.708C131.731 162.934 131.031 161.698 130.585 160.953C130.123 160.224 129.17 158.914 128.455 158.05C127.741 157.186 126.669 156.01 126.073 155.43C125.463 154.849 124.435 153.97 123.78 153.464C123.125 152.958 122.53 152.482 122.44 152.407C122.351 152.348 121.726 151.916 121.026 151.469C120.326 151.008 118.793 150.159 117.601 149.563C116.41 148.983 115.309 148.417 115.145 148.342C114.981 148.253 114.237 147.955 113.507 147.672C112.777 147.39 111.333 146.898 110.306 146.556C109.279 146.228 108.043 145.841 107.551 145.692C107.06 145.543 105.75 145.216 104.648 144.963C103.546 144.71 101.462 144.337 100.033 144.129C98.6033 143.935 96.4891 143.697 95.3426 143.608C94.1962 143.533 91.6204 143.474 89.6104 143.489C87.6004 143.489 85.2331 143.548 84.3248 143.623Z" fill="#D2D832"/>
<path d="M124.422 41.3483C125.941 41.3334 126.864 41.4078 127.847 41.6163C128.576 41.7652 129.753 42.1076 130.452 42.3607C131.152 42.6287 132.418 43.2541 133.266 43.7603C134.457 44.4601 135.202 45.0706 136.482 46.3212C137.465 47.3039 138.463 48.4652 138.969 49.2246C139.43 49.9243 140.041 50.9219 140.324 51.4579C140.592 51.9939 141.009 52.8872 141.217 53.4679C141.426 54.0337 141.693 54.9121 141.827 55.4034C141.947 55.8948 142.11 56.8328 142.2 57.4879C142.289 58.143 142.364 59.1852 142.364 59.7957C142.364 60.4061 142.289 61.4781 142.2 62.1779C142.11 62.8777 141.842 64.2177 141.589 65.1556C141.351 66.0936 141.083 66.9422 141.009 67.0168C140.934 67.0912 140.875 67.255 140.875 67.3443C140.875 67.4488 140.636 68.0294 140.354 68.6099C140.056 69.2054 139.684 69.935 139.505 70.2179C139.341 70.5008 138.954 71.0368 138.671 71.409C138.373 71.7812 137.927 72.3023 137.688 72.5703C137.435 72.8532 136.75 73.4338 136.185 73.8507C135.619 74.2823 135.038 74.6843 134.919 74.744C134.8 74.7887 134.368 75.0419 133.951 75.2801C133.549 75.5331 133.103 75.7713 132.984 75.816C132.864 75.8607 132.537 75.9947 132.284 76.1138C132.016 76.2329 131.673 76.3223 131.524 76.3223C131.375 76.3223 131.197 76.3818 131.122 76.4562C131.033 76.5456 130.438 76.7243 129.782 76.8732C128.889 77.0668 127.951 77.1412 126.06 77.1412C124.527 77.1412 123.172 77.0668 122.636 76.9477C122.144 76.8435 121.37 76.6498 120.924 76.5307C120.477 76.3967 119.926 76.2031 119.703 76.084C119.465 75.9649 119.226 75.8757 119.137 75.8756C119.048 75.8756 118.407 75.5928 117.693 75.2354C116.963 74.8781 115.876 74.2527 115.266 73.8358C114.655 73.4339 113.643 72.5852 113.032 71.9747C112.422 71.3643 111.588 70.3667 111.171 69.7562C110.769 69.1458 110.159 68.0888 109.816 67.389C109.459 66.6892 109.012 65.5874 108.819 64.9323C108.61 64.2772 108.328 63.1457 108.194 62.4012C107.985 61.3292 107.955 60.5252 108.015 58.3068C108.06 56.7881 108.164 55.2844 108.268 54.9568C108.357 54.6292 108.64 53.721 108.893 52.9468C109.146 52.1726 109.548 51.1006 109.787 50.5646C110.025 50.0286 110.576 49.0608 111.022 48.4057C111.454 47.7506 112.273 46.753 112.839 46.2021C113.39 45.6513 114.462 44.7876 115.191 44.2962C115.921 43.8049 117.067 43.1498 117.722 42.8372C118.378 42.5394 119.286 42.1673 119.732 42.0333C120.179 41.8993 120.953 41.6907 121.445 41.5716C121.981 41.4376 123.157 41.3483 124.422 41.3483Z" fill="#7BB92E"/>
<path d="M55.1892 41.2738C55.5168 41.2441 56.6186 41.2441 57.6458 41.2738C58.6732 41.3185 59.8792 41.4376 60.3258 41.5716C60.7725 41.7056 61.5616 41.929 62.0827 42.0927C62.5889 42.2416 63.3632 42.5544 63.7949 42.7777C64.2118 43.001 64.867 43.3732 65.2392 43.6114C65.6114 43.8645 66.2664 44.3707 66.7131 44.7429C67.1598 45.1152 67.9787 45.9639 68.5296 46.619C69.0804 47.2741 69.6611 48.0483 69.8249 48.3312C70.0036 48.6142 70.3609 49.3139 70.6438 49.8946C70.9267 50.4752 71.2691 51.2048 71.3882 51.5323C71.5222 51.8599 71.686 52.3661 71.7753 52.649C71.8498 52.9319 71.9987 53.4381 72.0881 53.7657C72.1774 54.0933 72.3412 55.0611 72.4603 55.9245C72.5794 56.7881 72.6836 57.8899 72.6836 58.3812C72.6687 58.8726 72.5794 59.9148 72.4603 60.689C72.3412 61.4632 72.1476 62.431 72.0284 62.8479C71.9242 63.2499 71.686 64.0093 71.5073 64.5155C71.3287 65.0366 70.9862 65.9001 70.7182 66.451C70.4651 67.0168 69.9887 67.8804 69.676 68.3866C69.3634 68.9077 68.7529 69.8159 68.3062 70.3966C67.8595 70.9921 66.9365 72.0194 66.2516 72.6894C65.5816 73.3445 64.5394 74.2378 63.9736 74.6547C63.4079 75.0716 62.3656 75.682 61.6658 76.0096C60.9661 76.3371 60.1026 76.6945 59.7303 76.8136C59.3581 76.9476 58.5243 77.1411 57.8692 77.2751C57.1992 77.4091 55.9634 77.5134 55.0403 77.5134C54.1321 77.5134 52.8665 77.4092 52.2114 77.2901C51.5563 77.1561 50.7226 76.9476 50.3503 76.8284C49.9781 76.6944 49.1145 76.3371 48.4147 76.0096C47.715 75.682 46.5834 75.027 45.8836 74.5654C45.1988 74.1039 44.0821 73.1807 43.427 72.5256C42.757 71.8706 41.9083 70.8283 41.5361 70.2179C41.149 69.6074 40.6278 68.595 40.3598 67.9845C40.1067 67.3742 39.8387 66.734 39.7642 66.5701C39.7047 66.4063 39.5708 66.0043 39.4814 65.6768C39.3921 65.3492 39.1836 64.3814 39.0348 63.5179C38.871 62.6394 38.737 61.3292 38.737 60.5401C38.737 59.7659 38.8709 58.4259 39.0198 57.5623C39.1836 56.6988 39.3921 55.731 39.4814 55.4034C39.5707 55.0759 39.7494 54.525 39.8685 54.1677C39.9876 53.8253 40.1364 53.4233 40.2109 53.2744C40.2704 53.1404 40.6427 52.4256 41.0149 51.6812C41.3872 50.9368 41.9381 49.969 42.2359 49.5223C42.5485 49.0757 43.2333 48.1824 43.7842 47.5421C44.3202 46.9019 45.2434 45.9787 45.8092 45.5172C46.375 45.0407 47.2534 44.3856 47.7447 44.0581C48.2361 43.7305 49.2039 43.1945 49.9036 42.867C50.6034 42.5245 51.467 42.1524 51.8392 42.0333C52.2114 41.9141 52.9857 41.7056 53.5514 41.5716C54.1172 41.4376 54.8616 41.3036 55.1892 41.2738Z" fill="#7BB92E"/>
<path fill-rule="evenodd" clip-rule="evenodd" d="M123.976 33.7999C125.107 33.7403 126.552 33.7701 127.43 33.8743C128.279 33.9637 129.485 34.1422 130.11 34.2762C130.75 34.4102 131.673 34.6485 132.165 34.8123C132.656 34.9761 133.832 35.4823 134.77 35.929C135.708 36.3905 136.914 37.0605 137.45 37.4327C137.986 37.8049 138.82 38.4601 139.311 38.8621C139.803 39.279 140.607 40.0234 141.083 40.5147C141.574 41.006 142.378 41.9143 142.885 42.5247C143.406 43.1351 144.18 44.2072 144.642 44.9069C145.088 45.6067 145.862 47.0063 146.354 48.0336C146.845 49.0609 147.456 50.5349 147.694 51.3091C147.932 52.0834 148.274 53.3936 148.438 54.2125C148.617 55.0313 148.825 56.2969 148.9 57.0414C148.989 57.7858 149.064 59.3194 149.064 60.4658C149.064 61.6122 148.959 63.384 148.84 64.4114C148.721 65.4387 148.557 66.6447 148.483 67.0913C148.409 67.538 148.304 68.0144 148.26 68.1336C148.215 68.2527 148.23 68.4313 148.289 68.5058C148.349 68.5802 148.959 69.0269 149.659 69.5034C150.359 69.9649 151.595 70.9327 152.399 71.6623C153.218 72.3769 154.483 73.6425 155.213 74.4613C155.957 75.2802 156.806 76.3224 157.133 76.7691C157.446 77.2158 158.071 78.124 158.503 78.7791C158.95 79.4342 159.635 80.6402 160.051 81.4591C160.453 82.278 161.004 83.5138 161.272 84.2136C161.526 84.9133 161.823 85.7173 161.942 86.0002C162.062 86.2831 162.24 86.8489 162.359 87.2658C162.478 87.6678 162.657 88.308 162.746 88.6802C162.836 89.0524 163 89.782 163.119 90.318C163.238 90.854 163.416 91.9856 163.506 92.8491C163.595 93.7127 163.684 95.2909 163.684 96.348C163.684 97.4051 163.64 98.8195 163.58 99.4747C163.521 100.13 163.357 101.41 163.208 102.304C163.044 103.197 162.761 104.582 162.553 105.356C162.359 106.13 162.002 107.276 161.779 107.887C161.555 108.497 161.019 109.808 160.573 110.79C160.141 111.773 159.441 113.172 159.009 113.917C158.592 114.661 157.848 115.852 157.357 116.597C156.865 117.341 156.061 118.473 155.57 119.128C155.064 119.783 154.588 120.393 154.513 120.483C154.424 120.572 154.185 120.84 153.992 121.078C153.798 121.317 153.098 122.076 152.429 122.776C151.759 123.461 150.657 124.562 149.957 125.203C149.257 125.858 148.155 126.796 147.5 127.302C146.845 127.808 145.743 128.627 145.044 129.118C144.344 129.625 142.87 130.592 141.768 131.292C140.666 131.992 139.52 132.677 139.237 132.826C138.954 132.96 137.942 133.481 137.004 133.942C136.066 134.419 134.755 135.059 134.1 135.357C133.445 135.655 132.343 136.116 131.644 136.399C130.944 136.682 129.842 137.069 129.187 137.292C128.532 137.501 127.877 137.665 127.728 137.665C127.594 137.665 127.207 137.799 126.879 137.962C126.552 138.126 126.254 138.394 126.209 138.558C126.164 138.722 126.194 138.99 126.284 139.153C126.373 139.317 126.611 139.57 126.834 139.704C127.192 139.913 127.475 139.943 128.74 139.853C129.559 139.794 130.959 139.615 131.867 139.451C132.775 139.287 133.877 139.049 134.324 138.93C134.77 138.796 135.47 138.603 135.887 138.483C136.289 138.379 137.004 138.141 137.45 137.962C137.897 137.799 138.492 137.56 138.746 137.441C139.014 137.322 139.267 137.218 139.311 137.218C139.356 137.218 140.16 136.846 141.098 136.399C142.036 135.952 142.9 135.58 142.989 135.58C143.093 135.58 144.091 136.503 145.207 137.635C146.324 138.751 147.694 140.24 148.26 140.94C148.84 141.64 149.868 142.98 150.582 143.918C151.282 144.856 152.28 146.27 152.816 147.045C153.352 147.819 154.29 149.293 154.915 150.32C155.525 151.347 156.27 152.613 156.568 153.149C156.865 153.685 157.937 155.755 158.95 157.765C159.962 159.775 161.004 161.919 161.272 162.529C161.54 163.139 161.838 163.839 161.957 164.092C162.062 164.346 162.434 165.209 162.761 166.028C163.104 166.847 163.774 168.589 164.265 169.899C164.756 171.209 165.248 172.475 165.352 172.728C165.456 172.981 166.022 174.649 166.603 176.45C167.183 178.252 167.838 180.321 168.062 181.066C168.27 181.81 168.538 182.703 168.642 183.076C168.721 183.355 168.849 183.835 168.971 184.284L169.207 185.143C169.329 185.592 169.458 186.072 169.536 186.351C169.64 186.723 169.833 187.423 169.953 187.915C170.087 188.406 170.34 189.374 170.518 190.073C170.697 190.773 170.891 191.607 170.95 191.935C171.025 192.262 171.248 193.23 171.441 194.093C171.65 194.957 171.888 196.089 171.992 196.625C172.082 197.161 172.26 198.024 172.365 198.56C172.469 199.096 172.677 200.228 172.796 201.091C172.93 201.955 173.124 203.488 173.243 204.516C173.362 205.543 173.556 207.553 173.66 208.982C173.749 210.412 173.839 213.3 173.824 215.385C173.824 217.811 173.734 219.97 173.571 221.37C173.437 222.591 173.198 224.065 173.035 224.645C172.886 225.241 172.618 226.105 172.469 226.551C172.305 226.998 172.007 227.698 171.799 228.115C171.59 228.517 171.233 229.038 170.995 229.261C170.771 229.469 170.176 229.812 169.685 230.02C169.193 230.214 168.538 230.422 168.226 230.482C167.779 230.556 167.66 230.526 167.585 230.303C167.541 230.169 167.6 229.856 167.719 229.603C167.838 229.35 168.121 228.65 168.345 228.04C168.568 227.43 168.866 226.447 169.015 225.881C169.164 225.315 169.357 224.243 169.461 223.499C169.566 222.725 169.625 221.31 169.58 220.149C169.536 218.392 169.476 218.05 169.164 217.395C168.955 216.993 168.613 216.546 168.389 216.427C168.032 216.218 167.943 216.233 167.392 216.501C167.035 216.68 166.722 216.948 166.647 217.171C166.573 217.38 166.469 218.303 166.424 219.211C166.379 220.134 166.23 221.385 166.111 221.965C165.992 222.561 165.754 223.588 165.575 224.243C165.412 224.899 165.024 226 164.741 226.7C164.444 227.4 163.967 228.338 163.684 228.785C163.402 229.231 162.717 230.035 162.181 230.586C161.645 231.122 160.93 231.688 160.602 231.837C160.186 232.03 159.664 232.12 158.875 232.12C157.848 232.135 157.699 232.09 157.178 231.688C156.865 231.435 156.508 231.018 156.404 230.75C156.3 230.497 156.21 229.976 156.21 229.603C156.21 229.201 156.538 227.921 157.044 226.358C157.506 224.958 157.967 223.454 158.071 223.052C158.19 222.635 158.384 221.802 158.518 221.191C158.652 220.581 158.846 219.107 158.965 217.916C159.069 216.725 159.114 215.653 159.069 215.533C159.024 215.414 158.89 215.191 158.756 215.042C158.622 214.893 158.354 214.774 158.146 214.774C157.937 214.774 157.654 214.893 157.52 215.042C157.386 215.191 157.104 215.816 156.91 216.427C156.702 217.037 156.389 217.871 156.21 218.288C156.032 218.69 155.51 219.807 155.064 220.745C154.617 221.683 153.947 222.933 153.56 223.499C153.188 224.065 152.577 224.869 152.205 225.256C151.744 225.747 151.297 226.045 150.85 226.179C150.389 226.313 149.987 226.343 149.585 226.253C149.198 226.164 148.825 225.941 148.498 225.598C148.245 225.3 147.947 224.779 147.858 224.422C147.724 223.946 147.724 223.171 147.858 221.266C147.947 219.881 148.155 217.722 148.319 216.501C148.483 215.265 148.706 213.598 148.825 212.779C148.944 211.96 149.168 210.322 149.332 209.131C149.51 207.94 149.719 206.302 149.808 205.483C149.912 204.665 150.016 202.818 150.061 201.389C150.121 199.171 150.195 198.53 150.567 197.071C150.806 196.133 151.103 194.659 151.237 193.796C151.357 192.932 151.52 191.324 151.595 190.222C151.654 189.121 151.654 187.111 151.58 185.756C151.52 184.401 151.386 182.659 151.297 181.885C151.208 181.11 150.94 179.294 150.701 177.865C150.463 176.435 150.165 174.753 150.031 174.142C149.912 173.532 149.659 172.43 149.495 171.686C149.317 170.941 148.974 169.571 148.736 168.633C148.498 167.695 148.14 166.355 147.917 165.656C147.709 164.956 147.336 163.75 147.098 162.976C146.845 162.201 146.279 160.623 145.833 159.477C145.371 158.33 144.612 156.588 144.15 155.606C143.674 154.623 142.944 153.298 142.527 152.658C142.111 152.032 141.589 151.348 141.351 151.139C141.128 150.931 140.83 150.752 140.681 150.767C140.547 150.767 140.324 150.916 140.205 151.094C140.011 151.407 140.011 151.526 140.22 152.256C140.354 152.702 140.547 153.313 140.651 153.596C140.756 153.879 141.113 154.951 141.455 155.978C141.783 157.005 142.349 158.837 142.721 160.072C143.078 161.293 143.406 162.469 143.45 162.678C143.495 162.886 143.778 163.988 144.076 165.135C144.374 166.281 144.671 167.487 144.746 167.815C144.805 168.142 145.088 169.408 145.341 170.643C145.609 171.864 145.907 173.383 146.026 173.993C146.131 174.604 146.443 176.688 146.696 178.609C147.143 181.855 147.173 182.421 147.188 186.5C147.188 190.371 147.158 191.131 146.86 192.902C146.681 194.004 146.384 195.448 146.235 196.103C146.071 196.759 145.654 198.128 145.326 199.156C144.984 200.183 144.418 201.791 144.046 202.729C143.674 203.667 142.751 205.707 141.976 207.27C141.202 208.833 140.22 210.695 139.788 211.439C139.356 212.183 138.537 213.449 137.971 214.268C137.42 215.087 136.78 215.995 136.557 216.278C136.348 216.561 135.976 217.127 135.753 217.543C135.366 218.228 135.351 218.347 135.485 218.958C135.574 219.33 135.678 221.965 135.723 224.839C135.768 227.698 135.857 235.574 135.902 242.333C135.976 251.058 135.946 255.823 135.812 258.786C135.723 261.078 135.589 263.788 135.53 264.816C135.485 265.843 135.47 266.84 135.515 267.034C135.559 267.257 135.842 267.525 136.259 267.764C136.631 267.987 137.495 268.329 138.195 268.553C138.894 268.776 139.966 269.133 140.577 269.357C141.187 269.58 142.468 270.057 143.406 270.429C144.344 270.801 145.446 271.248 145.862 271.441C146.264 271.62 147.247 272.052 148.021 272.379C148.796 272.707 149.972 273.258 150.627 273.615C151.282 273.957 152.146 274.419 152.562 274.642C152.964 274.866 153.634 275.223 154.051 275.461C154.453 275.684 155.272 276.191 155.838 276.563C156.404 276.92 157.386 277.65 157.997 278.156C158.607 278.662 159.56 279.541 160.096 280.092C160.632 280.657 161.406 281.625 161.794 282.236C162.196 282.846 162.642 283.724 162.791 284.171C162.94 284.618 163.059 285.109 163.059 285.243C163.059 285.392 162.746 285.839 162.344 286.241C161.883 286.717 161.436 287.03 161.049 287.134C160.722 287.223 160.156 287.328 159.114 287.476L157.178 285.556C156.106 284.499 154.811 283.278 154.275 282.846C153.739 282.399 152.577 281.551 151.669 280.955C150.761 280.359 149.257 279.496 148.319 279.019C147.381 278.558 145.535 277.769 144.225 277.292C142.914 276.801 141.604 276.339 141.321 276.265C141.038 276.205 140.651 276.131 140.458 276.131C140.264 276.131 139.907 276.325 139.669 276.578C139.431 276.831 139.267 277.114 139.296 277.203C139.311 277.307 139.475 277.382 139.624 277.352C139.773 277.322 140.041 277.441 140.205 277.605C140.368 277.769 141.128 278.275 141.872 278.722C142.632 279.183 143.287 279.556 143.331 279.556C143.376 279.556 143.957 279.913 144.627 280.345C145.312 280.776 146.532 281.625 147.351 282.236C148.17 282.831 149.406 283.814 150.106 284.394C150.806 284.99 151.937 286.062 152.637 286.806C153.396 287.596 154.081 288.489 154.334 289.025C154.692 289.725 154.781 290.097 154.781 290.871C154.781 291.675 154.721 291.928 154.424 292.33C154.2 292.628 153.783 292.911 153.381 293.045C153.009 293.179 152.101 293.313 151.371 293.358C150.404 293.402 149.555 293.343 148.319 293.119C147.381 292.955 146.369 292.747 146.086 292.658C145.803 292.554 145.431 292.434 145.267 292.36C145.103 292.286 144.776 292.166 144.522 292.092C144.135 291.988 144.031 291.824 143.719 290.931C143.525 290.365 143.153 289.591 142.9 289.218C142.646 288.831 141.768 287.729 140.934 286.762C140.1 285.779 138.775 284.38 137.971 283.65C137.167 282.92 135.976 281.878 135.306 281.342C134.651 280.806 133.43 279.928 132.611 279.377C131.792 278.841 130.646 278.156 130.08 277.873C129.514 277.59 128.606 277.203 128.07 277.039C127.534 276.861 126.909 276.727 126.686 276.727C126.418 276.727 126.105 276.891 125.822 277.173C125.584 277.426 125.39 277.724 125.39 277.843C125.39 277.962 125.614 278.245 125.882 278.469C126.164 278.707 126.82 279.183 127.326 279.556C127.847 279.928 128.993 280.761 129.857 281.402C130.72 282.057 131.897 282.98 132.462 283.471C133.028 283.963 134.234 285.109 135.113 286.017C136.006 286.925 137.108 288.176 137.569 288.787C138.031 289.397 138.701 290.454 139.043 291.124C139.46 291.928 139.684 292.554 139.684 292.911C139.684 293.313 139.594 293.566 139.356 293.789C139.162 293.968 138.775 294.236 138.492 294.385C138.031 294.638 137.644 294.668 135.291 294.653C133.207 294.653 132.239 294.578 130.899 294.325C129.961 294.147 128.889 293.938 128.517 293.864C128.145 293.789 127.281 293.581 126.581 293.402C125.882 293.224 125.152 293.045 124.944 293C124.735 292.956 123.797 292.688 122.859 292.405C121.921 292.122 120.134 291.556 118.914 291.139C117.678 290.737 115.951 290.097 115.042 289.739C114.134 289.367 113.271 289.01 113.107 288.936C112.943 288.876 112.467 288.668 112.065 288.489C111.648 288.31 110.352 287.685 109.161 287.104C107.97 286.524 106.466 285.705 105.811 285.273C105.156 284.856 104.308 284.186 103.92 283.784C103.533 283.382 102.982 282.652 102.685 282.161C102.387 281.67 102.015 280.836 101.851 280.3C101.687 279.764 101.494 278.826 101.404 278.216C101.315 277.486 101.315 276.265 101.419 274.642C101.508 273.287 101.642 270.741 101.717 268.984C101.806 267.228 101.925 264.25 102.015 262.359C102.089 260.468 102.164 256.359 102.164 253.202C102.178 250.046 102.104 245.296 102.03 242.631C101.94 239.966 101.836 237.003 101.717 234.293L102.119 234.204C102.357 234.159 103.072 233.996 103.727 233.832C104.382 233.668 105.558 233.326 106.332 233.072C107.107 232.819 108.119 232.432 108.566 232.194C109.012 231.971 109.683 231.464 110.04 231.062C110.427 230.661 110.71 230.199 110.71 230.005C110.725 229.812 110.769 229.618 110.829 229.589C110.903 229.559 110.888 229.395 110.799 229.231C110.71 229.067 110.397 228.859 110.084 228.77C109.623 228.636 109.295 228.68 108.045 228.993C107.226 229.201 105.856 229.499 104.992 229.663C104.129 229.827 102.953 230.02 102.387 230.11C101.821 230.199 100.302 230.378 99.0369 230.527C97.3247 230.72 95.3891 230.78 91.518 230.78C88.2276 230.795 85.622 230.72 84.4458 230.601C83.4185 230.497 81.6169 230.273 80.4258 230.095C79.2347 229.931 77.6267 229.678 76.8525 229.514C76.0783 229.365 74.8574 229.112 74.1427 228.978C72.8474 228.71 72.8324 228.71 72.4305 229.023C72.1029 229.276 71.9988 229.469 71.969 229.99C71.9392 230.586 71.9839 230.69 72.5645 231.241C72.9219 231.569 73.6365 232.045 74.1725 232.313C74.7085 232.566 75.9443 233.043 76.9269 233.37C77.9096 233.698 79.1008 234.055 79.5921 234.159C80.0685 234.278 80.5151 234.472 80.5747 234.591C80.6491 234.71 80.6492 235.485 80.5747 236.303C80.5003 237.122 80.3513 240.041 80.2471 242.78C80.1429 245.52 80.0537 251.118 80.0686 255.212C80.0686 259.307 80.1578 264.473 80.2471 266.677C80.3513 268.88 80.5301 272.468 80.9321 278.588L80.5003 279.779C80.2769 280.434 79.875 281.342 79.6219 281.789C79.3688 282.236 78.788 282.995 78.3414 283.486C77.8947 283.963 77.046 284.707 76.4803 285.139C75.9145 285.571 74.768 286.285 73.9492 286.747C73.1303 287.208 71.4925 287.983 70.3014 288.489C69.1103 288.995 67.8745 289.531 67.5469 289.68C67.2194 289.829 66.0878 290.305 65.0158 290.722C63.9438 291.154 62.2465 291.794 61.2192 292.166C60.1919 292.524 59.0156 292.926 58.6136 293.045C58.1967 293.164 57.095 293.432 56.157 293.626C55.219 293.834 53.745 294.147 52.8814 294.31C52.0179 294.459 50.5141 294.653 49.5314 294.727C48.5487 294.787 46.9407 294.787 45.9581 294.712C44.9754 294.653 43.9779 294.534 43.7247 294.444C43.4716 294.37 43.0846 294.117 42.8612 293.894C42.5784 293.611 42.4443 293.328 42.4592 292.985C42.4592 292.732 42.5933 292.256 42.7421 291.943C42.891 291.645 43.3377 290.96 43.7397 290.424C44.1268 289.888 44.6926 289.189 44.9755 288.861C45.2733 288.519 46.0772 287.625 46.777 286.866C47.4768 286.092 48.7125 284.886 49.5314 284.186C50.3503 283.486 51.3181 282.667 51.6903 282.369C52.0626 282.072 53.0601 281.372 53.9236 280.791C54.7872 280.211 55.6805 279.645 55.9336 279.526C56.1867 279.392 56.6037 279.124 56.8568 278.9C57.1991 278.632 57.3481 278.379 57.3481 278.096C57.3629 277.873 57.2438 277.545 57.0949 277.382C56.946 277.203 56.6036 276.98 56.3357 276.89C55.9486 276.756 55.7103 276.786 54.9957 277.024C54.5341 277.203 53.4174 277.724 52.5092 278.186C51.601 278.662 49.9632 279.645 48.8614 280.359C47.7597 281.089 46.375 282.057 45.8092 282.518C45.2434 282.98 44.4245 283.65 44.0225 284.022C43.6056 284.394 42.623 285.362 41.8042 286.181C41.0002 287 40.0621 288.072 39.7048 288.563C39.3474 289.055 38.886 289.784 38.6775 290.201C38.4542 290.603 38.2159 291.169 38.1414 291.422C38.0074 291.869 37.8883 291.943 36.8312 292.286C36.2059 292.494 34.9255 292.822 34.0023 293.03C32.9006 293.283 31.8881 293.402 30.9948 293.402C30.027 293.402 29.4166 293.313 28.7912 293.104C28.3297 292.941 27.7491 292.613 27.5109 292.39C27.2727 292.167 26.9897 291.764 26.8855 291.496C26.7068 291.094 26.7068 290.916 26.8855 290.305C26.9897 289.918 27.213 289.338 27.3916 289.01C27.5554 288.682 28.1808 287.849 28.7912 287.149C29.4017 286.449 30.3249 285.496 30.8608 285.035C31.382 284.573 32.305 283.814 32.8857 283.367C33.4812 282.906 34.5533 282.146 35.2679 281.67C35.9975 281.178 36.9503 280.553 37.397 280.27C37.8437 279.987 38.8859 279.407 39.7048 278.975C40.5236 278.528 41.3723 278.052 41.5957 277.903C41.8339 277.739 42.0423 277.486 42.087 277.322C42.1316 277.158 42.0572 276.861 41.9381 276.652C41.7445 276.34 41.5956 276.28 41.0001 276.28C40.5832 276.28 39.5559 276.518 38.4392 276.876C37.4119 277.203 35.5061 278.007 34.1959 278.647C32.8857 279.302 31.0693 280.33 30.161 280.925C29.2528 281.521 28.0171 282.414 27.4066 282.906C26.7962 283.397 25.5752 284.558 23.0292 287.179L22.0614 287.089C21.4361 287.03 20.8257 286.851 20.3492 286.583C19.8132 286.3 19.5304 286.017 19.322 285.586C19.0391 285.005 19.0391 284.96 19.2922 284.246C19.4411 283.829 19.8132 283.069 20.1259 282.533C20.4386 281.997 21.1235 281.059 21.6446 280.449C22.1657 279.838 23.1931 278.826 23.9077 278.216C24.6224 277.605 25.7687 276.727 26.4238 276.28C27.0939 275.818 28.285 275.089 29.0592 274.627C29.8334 274.181 31.1139 273.496 31.8881 273.124C32.6623 272.751 33.6748 272.275 34.1214 272.067C34.5681 271.858 35.3423 271.516 35.8336 271.292C36.325 271.069 37.4268 270.622 38.2903 270.295C39.1539 269.967 41.1639 269.252 42.757 268.731C44.3501 268.195 45.839 267.674 46.0623 267.555C46.3005 267.436 46.5537 267.198 46.6579 267.004C46.777 266.781 46.7919 266.007 46.7175 264.369C46.6579 263.103 46.5536 261.257 46.4792 260.274C46.4047 259.292 46.3155 257.818 46.2708 256.999C46.2262 256.18 46.107 253.768 46.0177 251.639C45.8986 248.929 45.8687 244.135 45.9581 235.708C46.0176 229.082 46.107 222.844 46.1666 221.861C46.241 220.238 46.2856 220.075 46.5536 220.03C46.7174 220 46.9408 219.896 47.0599 219.792C47.1642 219.702 47.3577 219.449 47.4619 219.211C47.6108 218.943 47.6256 218.66 47.5512 218.318C47.4767 218.064 46.8216 217.037 46.0772 216.055C45.3476 215.072 44.2459 213.523 43.6355 212.63C43.025 211.737 42.1763 210.427 41.7594 209.727C41.3425 209.027 40.5982 207.642 40.092 206.63C39.5857 205.632 38.8859 204.099 38.5434 203.205C38.1861 202.327 37.5757 200.645 37.2035 199.453C36.8312 198.262 36.3845 196.699 36.2059 195.955C36.0272 195.21 35.7592 193.87 35.6103 192.977C35.4465 192.083 35.2084 190.237 35.0744 188.882C34.8957 187.036 34.851 185.726 34.9105 183.597C34.9701 182.033 35.0743 180.068 35.1636 179.205C35.2381 178.341 35.4168 176.837 35.5508 175.855C35.6848 174.872 35.9826 172.966 36.2357 171.611C36.4739 170.256 36.7568 168.678 36.8759 168.112C36.995 167.547 37.2184 166.475 37.3821 165.73C37.5459 164.986 37.8585 163.646 38.067 162.752C38.2754 161.859 38.5732 160.683 38.737 160.147C38.8859 159.611 39.3177 158.003 39.6899 156.573C40.077 155.144 40.5237 153.491 40.6875 152.926C40.8513 152.36 41.0299 151.645 41.0746 151.362C41.149 150.916 41.1043 150.797 40.762 150.543C40.4195 150.29 40.3003 150.276 39.9877 150.424C39.7941 150.529 39.3772 151.005 39.0794 151.467C38.7816 151.943 38.1117 153.194 37.6055 154.266C37.0993 155.338 36.6377 156.365 36.5781 156.573C36.5185 156.782 36.4143 157.02 36.3548 157.095C36.2952 157.169 35.9379 158.107 35.5657 159.179C35.1935 160.251 34.7021 161.71 34.4936 162.455C34.2852 163.199 34.0322 164.122 33.9131 164.539C33.8088 164.941 33.6003 165.685 33.4812 166.177C33.3472 166.668 33.0793 167.74 32.8708 168.559C32.6624 169.378 32.3051 171.09 32.052 172.356C31.8137 173.621 31.516 175.467 31.382 176.45C31.2628 177.433 31.0692 178.937 30.965 179.8C30.8458 180.738 30.7714 183.076 30.7714 185.607C30.7714 188.197 30.8458 190.401 30.965 191.265C31.0692 192.039 31.2628 193.319 31.382 194.093C31.5011 194.868 31.7095 195.895 31.8286 196.357C31.9477 196.833 32.037 197.473 32.037 197.771C32.037 198.084 31.9476 198.664 31.8137 199.081C31.6945 199.483 31.5606 200.734 31.501 201.836C31.4415 203.042 31.4713 204.62 31.5755 205.781C31.6797 206.853 31.8882 208.417 32.052 209.28C32.2157 210.144 32.4092 211.171 32.4836 211.588C32.5581 211.99 32.8559 213.568 33.1388 215.087C33.4217 216.605 33.7344 218.377 33.8386 219.032C33.928 219.687 34.0172 220.819 34.0172 221.563C34.0172 222.308 33.9279 223.276 33.8236 223.722C33.7045 224.169 33.4663 224.72 33.2727 224.943C32.9899 225.286 32.8112 225.36 32.2603 225.36C31.8881 225.36 31.3521 225.256 31.0692 225.137C30.7863 225.018 30.2206 224.601 29.8335 224.199C29.4463 223.812 28.7614 222.963 28.3148 222.308C27.8681 221.653 26.8259 219.777 26.007 218.139C24.7861 215.697 24.4288 215.102 23.997 214.819C23.7141 214.64 23.3419 214.476 23.1781 214.491C23.0143 214.491 22.6868 214.685 22.4337 214.938C22.0019 215.385 21.987 215.414 22.1805 216.099C22.2847 216.486 22.4634 217.127 22.5825 217.543C22.7017 217.945 23.0442 219.122 23.342 220.149C23.6397 221.176 24.0715 222.755 24.3097 223.648C24.548 224.541 24.8308 225.717 24.9201 226.253C25.0095 226.789 25.0838 227.623 25.0839 228.115C25.069 228.606 24.9945 229.306 24.8903 229.678C24.7712 230.124 24.5032 230.556 24.1012 230.958C23.6397 231.405 23.3121 231.584 22.8059 231.658C22.4337 231.718 21.8977 231.718 21.6148 231.673C21.3319 231.613 20.8554 231.45 20.5726 231.301C20.2897 231.152 19.709 230.675 19.307 230.244C18.8901 229.812 18.3392 229.112 18.0861 228.71C17.8181 228.293 17.4012 227.37 17.1481 226.626C16.895 225.881 16.493 224.422 16.2548 223.35C16.0314 222.278 15.7337 220.506 15.5848 219.405C15.4508 218.303 15.287 217.231 15.2424 217.022C15.1828 216.814 14.8999 216.516 14.617 216.367C14.1406 216.099 14.0512 216.099 13.5898 216.293C13.3218 216.412 13.0239 216.635 12.9346 216.799C12.8453 216.963 12.6964 217.499 12.5922 217.99C12.488 218.481 12.3986 219.717 12.3837 220.745C12.3837 221.772 12.488 223.246 12.5922 224.02C12.7113 224.794 12.9345 225.941 13.0983 226.551C13.2621 227.162 13.545 228.07 13.7237 228.561C13.9023 229.053 14.0959 229.648 14.215 230.348L13.5599 230.229C13.2026 230.169 12.6518 230.035 12.3242 229.931C12.0116 229.827 11.55 229.574 11.282 229.365C11.014 229.142 10.5076 228.353 10.0461 227.43C9.5101 226.373 9.123 225.301 8.81034 224.095C8.54235 223.008 8.30418 221.549 8.19996 220.372C8.11062 219.271 8.08079 217.067 8.14034 215.236C8.18501 213.479 8.33398 210.397 8.4531 208.387C8.57221 206.377 8.84021 203.563 9.04865 202.133C9.25709 200.704 9.61443 198.456 9.86754 197.146C10.1058 195.835 10.4333 194.123 10.612 193.349C10.7758 192.575 11.1033 191.071 11.3564 189.999C11.5946 188.927 12.0413 187.096 12.339 185.905C12.6219 184.713 13.1282 182.837 13.4409 181.736C13.7535 180.634 14.2299 179.026 14.4979 178.162C14.751 177.299 15.1829 175.929 15.4509 175.11C15.7189 174.291 16.1952 172.847 16.5227 171.909C16.8503 170.971 17.4608 169.289 17.8777 168.187C18.2946 167.085 18.6965 166.043 18.7859 165.879C18.8604 165.715 19.2624 164.747 19.6792 163.72C20.111 162.693 20.5131 161.785 20.5875 161.71C20.6619 161.636 20.7214 161.472 20.7214 161.368C20.7216 161.278 21.4512 159.7 22.3444 157.869C23.2377 156.052 24.3096 153.968 24.7116 153.223C25.1136 152.479 25.8879 151.109 26.4537 150.171C27.0194 149.233 27.8086 147.953 28.2255 147.342C28.6424 146.732 29.0443 146.107 29.1337 145.973C29.2082 145.838 29.6549 145.198 30.1164 144.558C30.578 143.918 31.65 142.563 32.4986 141.536C33.3473 140.508 35.0148 138.677 36.2059 137.471C37.3969 136.265 38.4094 135.268 38.469 135.282C38.5435 135.282 38.7668 135.401 38.9901 135.55C39.2284 135.714 40.2706 136.235 41.3425 136.727C42.4145 137.233 44.0523 137.947 44.9903 138.335C45.9283 138.722 47.7745 139.302 49.0847 139.63C51.2734 140.181 51.6456 140.24 53.5514 140.255C55.5912 140.27 55.6508 140.255 56.2612 139.853C56.6185 139.63 56.9013 139.332 56.9014 139.183C56.8865 139.049 56.7525 138.766 56.5738 138.558C56.3356 138.275 55.5614 137.947 53.4919 137.263C51.9733 136.756 50.1567 136.131 49.457 135.878C48.7572 135.625 47.7746 135.223 47.2534 134.985C46.7472 134.732 46.3005 134.538 46.2559 134.538C46.2112 134.538 44.5883 133.749 42.6379 132.781C40.7023 131.813 38.3052 130.533 37.3225 129.922C36.3399 129.312 34.9999 128.434 34.3448 127.972C33.6896 127.496 32.3496 126.438 31.367 125.605C30.3843 124.771 29.089 123.609 28.4935 123.014C27.883 122.433 26.7515 121.183 25.9475 120.245C25.1584 119.307 24.2054 118.101 23.8183 117.565C23.4461 117.029 22.6719 115.823 22.0912 114.885C21.5255 113.947 20.781 112.607 20.4535 111.907C20.1259 111.207 19.6197 110.076 19.307 109.376C19.0092 108.676 18.5031 107.247 18.1755 106.175C17.8479 105.103 17.4608 103.569 17.297 102.75C17.1481 101.931 16.9397 100.725 16.8355 100.07C16.7313 99.4151 16.6568 97.6731 16.6568 96.1991C16.6717 94.204 16.7611 93.0426 16.9844 91.658C17.1631 90.6307 17.4162 89.3949 17.5353 88.9036C17.6544 88.4122 17.9969 87.3253 18.2798 86.4767C18.5626 85.6429 19.0688 84.3327 19.4112 83.5734C19.7537 82.8289 20.1706 81.9356 20.3492 81.608C20.5428 81.2804 20.8109 80.7742 20.9597 80.4913C21.1236 80.2084 21.6744 79.33 22.1955 78.5558C22.7166 77.7816 23.5206 76.6798 23.9822 76.0991C24.4288 75.5185 25.1732 74.64 25.6348 74.1189C26.0814 73.6127 27.1534 72.5555 28.017 71.7962C28.8805 71.022 29.8781 70.1734 30.2503 69.9054C30.6225 69.6374 31.2181 69.2056 31.5903 68.9525C31.9625 68.6993 32.3795 68.4463 32.5135 68.3867C32.707 68.3123 32.7666 68.1484 32.722 67.7912C32.6922 67.538 32.5283 66.7191 32.3646 65.9747C32.2008 65.2302 31.9923 64.0391 31.8881 63.2947C31.7839 62.5502 31.6946 61.0167 31.6797 59.8702C31.6797 58.7238 31.769 57.1456 31.8733 56.3714C31.9775 55.5971 32.1561 54.5549 32.2603 54.0636C32.3645 53.5722 32.5582 52.7682 32.6922 52.2769C32.8262 51.7856 33.0793 50.9816 33.2431 50.4903C33.4217 49.9989 33.7195 49.2247 33.9279 48.778C34.1363 48.3314 34.4341 47.6614 34.6127 47.2891C34.7914 46.9169 35.2977 46.0236 35.7444 45.2791C36.1761 44.5347 36.7122 43.7009 36.9355 43.418C37.144 43.1351 37.8289 42.3013 38.4542 41.5569C39.0795 40.8125 39.7495 40.0829 39.9431 39.9192C40.1367 39.7553 40.8364 39.1747 41.4914 38.6388C42.1465 38.1028 43.2483 37.3136 43.9481 36.8967C44.6479 36.4799 45.6156 35.9587 46.107 35.7503C46.5983 35.5418 47.1045 35.3035 47.2236 35.244C47.3429 35.1695 48.1766 34.9165 49.0847 34.6634C49.993 34.4103 51.2287 34.1274 51.8392 34.038C52.4496 33.9636 53.2239 33.8593 53.5514 33.8295C53.879 33.7998 55.1445 33.7998 56.3803 33.8295C57.6012 33.8444 59.1794 33.9785 59.8792 34.1125C60.579 34.2316 61.8147 34.5592 62.6336 34.8123C63.4525 35.0803 64.7925 35.6312 65.6114 36.048C66.4303 36.4649 67.7107 37.2392 68.4403 37.7603C69.1698 38.2665 70.629 39.547 71.6564 40.5743C72.9219 41.8398 73.845 42.9267 74.5001 43.9391C75.051 44.758 75.7805 46.0236 76.1379 46.768C76.4952 47.5124 76.8822 48.3462 76.9716 48.6291C77.1502 49.1353 77.1652 49.1503 77.716 49.0312C78.0138 48.9716 79.5772 48.8228 81.1703 48.6888C83.0314 48.525 85.9943 48.4355 89.4336 48.4206C93.4685 48.4058 95.5827 48.4653 97.9947 48.6738C99.7516 48.8227 101.598 49.0014 102.089 49.061C102.58 49.1354 103.072 49.1502 103.191 49.0906C103.31 49.0456 103.727 48.3014 104.129 47.438C104.531 46.5745 105.246 45.3089 105.692 44.6091C106.154 43.9094 106.824 42.9416 107.196 42.4503C107.568 41.9589 108.372 41.0358 108.998 40.3956C109.623 39.7405 110.561 38.8769 111.097 38.4451C111.633 38.0133 112.452 37.4178 112.913 37.1201C113.39 36.8223 114.462 36.2415 115.296 35.8395C116.144 35.4376 117.097 35.0356 117.425 34.9314C117.752 34.842 118.392 34.6634 118.839 34.5443C119.286 34.4252 120.194 34.2168 120.849 34.0977C121.504 33.9786 122.904 33.8446 123.976 33.7999ZM43.7246 84.7047C42.6824 84.6749 42.1761 84.7196 41.4913 84.9579C41 85.1216 40.2407 85.479 39.794 85.7321C39.3325 86.0299 38.6476 86.6552 38.1563 87.2656C37.6947 87.8314 37.0842 88.7694 36.8013 89.3501C36.444 90.0647 36.2653 90.6751 36.2057 91.3005L36.1313 92.2236C37.1734 93.2806 37.6053 93.5934 37.7691 93.5934C37.9329 93.5934 38.3051 93.4147 38.5879 93.1914C38.8708 92.968 39.4068 92.432 39.7791 92.0151C40.1513 91.5833 40.5682 91.226 40.7022 91.226C40.866 91.2112 41.1191 91.4793 41.3722 91.911C41.5956 92.313 42.4443 93.2956 43.2631 94.1293C44.1118 94.978 45.3475 96.0203 46.1068 96.5265C46.8364 97.0179 48.0871 97.7921 48.8613 98.2388C49.6355 98.6854 50.6777 99.2363 51.169 99.4745C51.6604 99.6978 52.8366 100.219 53.7746 100.621C54.7126 101.023 56.3504 101.648 57.4224 102.006C58.4943 102.363 59.8939 102.81 60.549 103.018C61.2041 103.226 62.4697 103.599 63.3779 103.837C64.2861 104.075 65.5219 104.388 66.1324 104.522C66.7428 104.671 67.651 104.864 68.1424 104.983C68.6337 105.102 69.6015 105.296 70.3012 105.415C71.001 105.534 72.073 105.698 72.6835 105.787C73.2939 105.877 74.5297 106.04 75.4379 106.16C76.3461 106.294 77.7457 106.457 78.5646 106.547C79.3835 106.636 80.7532 106.77 81.6168 106.859C82.4804 106.949 85.9197 107.053 89.2846 107.098C94.0787 107.157 96.1484 107.127 98.9623 106.934C100.928 106.8 102.967 106.621 103.503 106.547C104.039 106.472 105.305 106.294 106.332 106.16C107.36 106.026 109.131 105.758 110.278 105.564C111.424 105.37 112.839 105.103 113.405 104.983C113.97 104.849 114.819 104.656 115.266 104.537C115.712 104.418 116.65 104.179 117.35 104.016C118.05 103.837 119.792 103.301 121.221 102.825C122.651 102.348 124.631 101.648 125.613 101.261C126.596 100.874 128.204 100.145 129.187 99.6532C130.169 99.1619 131.748 98.2536 132.686 97.6432C133.624 97.0328 134.964 96.0649 135.649 95.4693C136.348 94.8887 137.286 93.9805 137.748 93.4445C138.195 92.9085 138.879 92.0599 139.237 91.5388C139.609 91.0325 139.951 90.6156 140.011 90.6156C140.085 90.6157 140.309 90.839 140.517 91.0921C140.726 91.3601 141.306 92.0004 141.783 92.5065C142.438 93.2063 142.765 93.4445 143.063 93.4445C143.361 93.4445 143.614 93.2956 143.942 92.8936C144.195 92.5809 144.448 92.0598 144.507 91.7323C144.567 91.4048 144.537 90.7794 144.448 90.3477C144.359 89.901 144.016 89.1119 143.644 88.4865C143.272 87.9059 142.691 87.1167 142.334 86.7593C141.976 86.402 141.425 85.9256 141.098 85.7023C140.77 85.479 140.13 85.1662 139.683 85.0173C139.118 84.8238 138.462 84.7345 137.599 84.7345C136.557 84.7494 136.199 84.809 135.604 85.1067C135.187 85.3152 134.785 85.598 134.711 85.7469C134.591 85.9405 134.621 86.1341 134.845 86.551C135.008 86.8637 135.425 87.3252 135.768 87.5932C136.125 87.8612 136.557 88.0845 136.735 88.0845C136.929 88.0845 137.182 88.144 137.301 88.2184C137.48 88.3375 137.39 88.5461 136.78 89.4393C136.363 90.02 135.559 90.9431 134.993 91.4792C134.428 92.0151 133.222 92.9531 132.313 93.5338C131.405 94.1293 129.961 94.9929 129.068 95.4395C128.189 95.9011 126.581 96.6306 125.494 97.0773C124.422 97.5091 122.695 98.1643 121.668 98.5067C120.641 98.864 119.464 99.2362 119.062 99.3404C118.645 99.4447 117.544 99.7425 116.606 99.9956C115.668 100.249 114.625 100.517 114.298 100.576C113.97 100.651 112.898 100.874 111.916 101.082C110.933 101.291 109.057 101.633 107.747 101.842C106.437 102.035 104.531 102.318 103.503 102.437C102.476 102.571 100.496 102.75 99.1112 102.854C97.7265 102.959 94.0639 103.048 90.9968 103.048C87.7362 103.048 84.3564 102.959 82.8823 102.854C81.4977 102.735 79.2048 102.527 77.8201 102.363C76.4355 102.199 74.6786 101.976 73.949 101.857C73.2195 101.738 71.269 101.365 69.6312 101.053C67.9935 100.725 66.2217 100.368 65.6857 100.249C65.1497 100.13 64.1819 99.8765 63.5268 99.6978C62.8718 99.5192 62.2018 99.3256 62.0379 99.2958C61.874 99.2511 60.8021 98.9236 59.6557 98.5514C58.5093 98.194 56.5588 97.4943 55.3379 97.0178C54.1022 96.5265 52.2708 95.7076 51.2435 95.2014C50.2162 94.6803 48.6826 93.8316 47.819 93.2956C46.9108 92.7299 45.8239 91.8961 45.2135 91.2856C44.4988 90.5859 44.0075 89.9307 43.6948 89.2756C43.4417 88.7396 43.278 88.2334 43.3376 88.1292C43.3823 88.0249 43.8586 87.7271 44.3946 87.4592C45.0199 87.1465 45.4815 86.7892 45.7048 86.4467C45.8834 86.1639 46.0323 85.7768 46.0324 85.5832C46.0324 85.3599 45.8686 85.1663 45.5411 85.0025C45.2284 84.8387 44.6179 84.7345 43.7246 84.7047ZM82.5846 80.0147C82.257 79.9701 81.7955 79.9999 81.5423 80.0743C81.2892 80.1339 80.8723 80.3721 80.6192 80.5656C80.3512 80.7741 80.0237 81.2208 79.8897 81.5632C79.726 82.0099 79.6813 82.4119 79.7408 82.8734C79.8004 83.2456 80.0088 83.9008 80.2023 84.3177C80.4108 84.7494 80.7979 85.345 81.0659 85.6279C81.3339 85.9405 81.8253 86.2531 82.2123 86.3871C82.5846 86.5062 83.1206 86.5956 83.4035 86.5956C83.6863 86.5956 84.2224 86.4467 84.5946 86.2532C84.9817 86.0597 85.3986 85.6873 85.5623 85.3895C85.7708 85.0322 85.8601 84.6154 85.8601 83.9901C85.8452 83.4243 85.7411 82.8436 85.5475 82.4267C85.3837 82.0545 84.9817 81.4589 84.6542 81.1016C84.3415 80.7443 83.8799 80.3721 83.6268 80.2679C83.3737 80.1785 82.9121 80.0594 82.5846 80.0147ZM98.0988 80.0743C97.4437 80.0297 97.2204 80.0892 96.6695 80.4614C96.2973 80.6996 95.8357 81.1165 95.6421 81.3994C95.4486 81.6822 95.1359 82.1736 94.9721 82.5012C94.7488 82.9181 94.6594 83.3797 94.6446 84.0943C94.6446 84.8685 94.7191 85.1812 94.9573 85.5088C95.1211 85.7321 95.5529 86.0745 95.9251 86.268C96.3271 86.4616 96.8481 86.5956 97.2501 86.5956C97.6372 86.5956 98.203 86.4468 98.5901 86.2532C98.9623 86.0745 99.4834 85.7171 99.7514 85.4492C100.005 85.1812 100.362 84.6898 100.526 84.3623C100.704 83.9901 100.823 83.469 100.823 82.9777C100.823 82.3077 100.749 82.0991 100.258 81.4738C99.9599 81.0718 99.5133 80.5954 99.2899 80.4316C99.0219 80.238 98.5752 80.1041 98.0988 80.0743ZM125.018 38.8172C124.288 38.8321 122.874 38.9512 121.891 39.1001C120.909 39.249 119.569 39.5468 118.913 39.7701C118.258 39.9935 117.246 40.3955 116.68 40.6635C116.114 40.9315 115.027 41.5419 114.298 42.0333C113.568 42.5097 112.288 43.5519 111.469 44.341C110.65 45.1301 109.608 46.2914 109.146 46.9316C108.685 47.5867 108.03 48.6141 107.702 49.2246C107.375 49.835 106.868 51.041 106.571 51.9046C106.258 52.7681 105.871 54.1081 105.692 54.8823C105.409 56.1181 105.365 56.6988 105.38 59.349C105.394 61.8354 105.454 62.6543 105.707 63.7412C105.871 64.4856 106.109 65.4832 106.243 65.9745C106.377 66.4659 106.734 67.4039 107.047 68.059C107.345 68.7141 107.851 69.7117 108.164 70.2923C108.476 70.873 109.087 71.7961 109.533 72.3768C109.965 72.9574 110.948 74.0145 111.722 74.759C112.481 75.5034 113.613 76.4414 114.223 76.8582C114.834 77.29 115.876 77.9005 116.531 78.2281C117.186 78.5556 118.422 79.0768 119.286 79.3745C120.149 79.6723 121.579 80.0445 122.487 80.2082C123.579 80.3968 124.795 80.4912 126.135 80.4912C127.236 80.4912 128.681 80.387 129.336 80.2679C129.991 80.1488 130.795 79.985 131.122 79.8956C131.45 79.8063 132.016 79.6276 132.388 79.4936C132.76 79.3745 133.728 78.9426 134.547 78.5407C135.366 78.1387 136.512 77.4538 137.078 77.0369C137.644 76.6052 138.641 75.7416 139.281 75.1014C139.907 74.4612 140.83 73.3148 141.336 72.5555C141.842 71.811 142.483 70.7241 142.765 70.1434C143.063 69.5628 143.346 68.9374 143.421 68.729C143.48 68.5205 143.674 67.9845 143.837 67.5379C144.016 67.0912 144.329 66.049 144.522 65.2301C144.731 64.4112 144.969 62.967 145.058 62.029C145.148 61.091 145.177 59.617 145.118 58.7534C145.073 57.8899 144.939 56.7583 144.835 56.2223C144.731 55.6863 144.493 54.7185 144.314 54.0634C144.12 53.4083 143.718 52.2768 143.406 51.5323C143.093 50.7879 142.587 49.7308 142.274 49.1501C141.961 48.5695 141.47 47.7655 141.187 47.3634C140.904 46.9466 140.264 46.1574 139.758 45.5916C139.267 45.0259 138.507 44.2218 138.061 43.8049C137.629 43.3881 136.825 42.7182 136.274 42.331C135.738 41.929 134.651 41.2888 133.877 40.8868C133.103 40.4997 131.822 39.9637 131.048 39.7255C130.274 39.4724 128.904 39.1745 127.996 39.0405C127.087 38.9065 125.747 38.8023 125.018 38.8172ZM57.199 38.2812C55.9336 38.2515 54.6978 38.2663 54.4446 38.2961C54.1915 38.3407 53.4917 38.5046 52.8813 38.6535C52.2708 38.8172 51.1988 39.1299 50.499 39.3681C49.7993 39.5914 48.6975 40.0828 48.0424 40.4401C47.3873 40.7974 46.4195 41.393 45.8835 41.7503C45.3475 42.1225 44.4245 42.8669 43.814 43.4029C43.2185 43.9538 42.2506 44.9217 41.6848 45.5768C41.1041 46.2319 40.1661 47.4677 39.6004 48.3312C39.0197 49.1948 38.3646 50.2966 38.1413 50.7879C37.9179 51.2792 37.5457 52.0832 37.3224 52.5746C37.1139 53.0659 36.7715 54.0337 36.5779 54.7334C36.3844 55.4332 36.1165 56.6541 35.9974 57.4432C35.8634 58.2472 35.7591 59.5575 35.7591 60.3466C35.7591 61.1506 35.8633 62.4012 35.9824 63.1457C36.1015 63.8901 36.3547 65.0217 36.5185 65.6768C36.6971 66.3319 36.9949 67.2699 37.2033 67.7612C37.4118 68.2525 37.7541 69.0268 37.9626 69.4734C38.171 69.9201 38.7816 70.9326 39.3176 71.7068C39.8536 72.481 40.7767 73.6274 41.3574 74.2379C41.9678 74.8781 43.0994 75.8161 44.0374 76.4414C44.9307 77.0518 46.345 77.8707 47.1937 78.2727C48.0274 78.6747 49.2037 79.1362 49.7992 79.2851C50.3799 79.4489 51.4966 79.6871 52.2559 79.8062C53.0003 79.9402 54.2064 80.0445 54.9359 80.0445C55.6505 80.0445 56.663 79.9701 57.199 79.8956C57.735 79.8063 58.6433 79.6275 59.209 79.5084C59.7748 79.3744 60.7575 79.0618 61.3679 78.8236C61.9784 78.5854 62.8866 78.1834 63.3779 77.9303C63.8692 77.6772 64.7477 77.171 65.3135 76.7988C65.8792 76.4266 66.8619 75.7119 67.4724 75.2056C68.0828 74.6845 68.8273 74.0144 69.1101 73.7018C69.393 73.3742 69.944 72.749 70.3162 72.3023C70.7033 71.8556 71.3287 70.9772 71.7307 70.3668C72.1178 69.7563 72.7282 68.6545 73.0707 67.9101C73.4131 67.1656 73.8746 66.0341 74.0831 65.379C74.3064 64.7239 74.5595 63.8901 74.634 63.5179C74.7233 63.1457 74.8871 62.2523 75.0062 61.5079C75.1104 60.7634 75.2146 59.4234 75.2146 58.5301C75.2146 57.6368 75.1103 56.2968 74.9912 55.5523C74.8721 54.8079 74.5743 53.4977 74.3212 52.6044C74.083 51.726 73.6364 50.4306 73.3684 49.701C73.0856 48.9864 72.5644 47.8995 72.2368 47.289C71.8944 46.6786 71.1947 45.6363 70.6884 44.9812C70.1673 44.3261 69.3186 43.3881 68.7975 42.9116C68.2764 42.4203 67.3681 41.7206 66.8024 41.3335C66.2366 40.9464 65.3284 40.3954 64.7924 40.1125C64.2564 39.8297 63.497 39.4723 63.0801 39.3383C62.6781 39.1894 61.6954 38.9065 60.9213 38.7129C59.7897 38.4152 59.0452 38.3259 57.199 38.2812Z" fill="#7BB92E"/>
<path d="M124.422 41.3483C125.941 41.3334 126.864 41.4078 127.847 41.6163C128.576 41.7652 129.753 42.1076 130.452 42.3607C131.152 42.6287 132.418 43.2541 133.266 43.7603C134.457 44.4601 135.202 45.0706 136.482 46.3212C137.465 47.3039 138.463 48.4652 138.969 49.2246C139.43 49.9243 140.041 50.9219 140.324 51.4579C140.592 51.9939 141.009 52.8872 141.217 53.4679C141.426 54.0337 141.693 54.9121 141.827 55.4034C141.947 55.8948 142.11 56.8328 142.2 57.4879C142.289 58.143 142.364 59.1852 142.364 59.7957C142.364 60.4061 142.289 61.4781 142.2 62.1779C142.11 62.8777 141.842 64.2177 141.589 65.1556C141.351 66.0936 141.083 66.9422 141.009 67.0168C140.934 67.0912 140.875 67.255 140.875 67.3443C140.875 67.4488 140.636 68.0294 140.354 68.6099C140.056 69.2054 139.684 69.935 139.505 70.2179C139.341 70.5008 138.954 71.0368 138.671 71.409C138.373 71.7812 137.927 72.3023 137.688 72.5703C137.435 72.8532 136.75 73.4338 136.185 73.8507C135.619 74.2823 135.038 74.6843 134.919 74.744C134.8 74.7887 134.368 75.0419 133.951 75.2801C133.549 75.5331 133.103 75.7713 132.984 75.816C132.864 75.8607 132.537 75.9947 132.284 76.1138C132.016 76.2329 131.673 76.3223 131.524 76.3223C131.375 76.3223 131.197 76.3818 131.122 76.4562C131.033 76.5456 130.438 76.7243 129.782 76.8732C128.889 77.0668 127.951 77.1412 126.06 77.1412C124.527 77.1412 123.172 77.0668 122.636 76.9477C122.144 76.8435 121.37 76.6498 120.924 76.5307C120.477 76.3967 119.926 76.2031 119.703 76.084C119.465 75.9649 119.226 75.8757 119.137 75.8756C119.048 75.8756 118.407 75.5928 117.693 75.2354C116.963 74.8781 115.876 74.2527 115.266 73.8358C114.655 73.4339 113.643 72.5852 113.032 71.9747C112.422 71.3643 111.588 70.3667 111.171 69.7562C110.769 69.1458 110.159 68.0888 109.816 67.389C109.459 66.6892 109.012 65.5874 108.819 64.9323C108.61 64.2772 108.328 63.1457 108.194 62.4012C107.985 61.3292 107.955 60.5252 108.015 58.3068C108.06 56.7881 108.164 55.2844 108.268 54.9568C108.357 54.6292 108.64 53.721 108.893 52.9468C109.146 52.1726 109.548 51.1006 109.787 50.5646C110.025 50.0286 110.576 49.0608 111.022 48.4057C111.454 47.7506 112.273 46.753 112.839 46.2021C113.39 45.6513 114.462 44.7876 115.191 44.2962C115.921 43.8049 117.067 43.1498 117.722 42.8372C118.378 42.5394 119.286 42.1673 119.732 42.0333C120.179 41.8993 120.953 41.6907 121.445 41.5716C121.981 41.4376 123.157 41.3483 124.422 41.3483Z" fill="#7BB92E"/>
<path d="M55.1892 41.2738C55.5168 41.2441 56.6186 41.2441 57.6458 41.2738C58.6732 41.3185 59.8792 41.4376 60.3258 41.5716C60.7725 41.7056 61.5616 41.929 62.0827 42.0927C62.5889 42.2416 63.3632 42.5544 63.7949 42.7777C64.2118 43.001 64.867 43.3732 65.2392 43.6114C65.6114 43.8645 66.2664 44.3707 66.7131 44.7429C67.1598 45.1152 67.9787 45.9639 68.5296 46.619C69.0804 47.2741 69.6611 48.0483 69.8249 48.3312C70.0036 48.6142 70.3609 49.3139 70.6438 49.8946C70.9267 50.4752 71.2691 51.2048 71.3882 51.5323C71.5222 51.8599 71.686 52.3661 71.7753 52.649C71.8498 52.9319 71.9987 53.4381 72.0881 53.7657C72.1774 54.0933 72.3412 55.0611 72.4603 55.9245C72.5794 56.7881 72.6836 57.8899 72.6836 58.3812C72.6687 58.8726 72.5794 59.9148 72.4603 60.689C72.3412 61.4632 72.1476 62.431 72.0284 62.8479C71.9242 63.2499 71.686 64.0093 71.5073 64.5155C71.3287 65.0366 70.9862 65.9001 70.7182 66.451C70.4651 67.0168 69.9887 67.8804 69.676 68.3866C69.3634 68.9077 68.7529 69.8159 68.3062 70.3966C67.8595 70.9921 66.9365 72.0194 66.2516 72.6894C65.5816 73.3445 64.5394 74.2378 63.9736 74.6547C63.4079 75.0716 62.3656 75.682 61.6658 76.0096C60.9661 76.3371 60.1026 76.6945 59.7303 76.8136C59.3581 76.9476 58.5243 77.1411 57.8692 77.2751C57.1992 77.4091 55.9634 77.5134 55.0403 77.5134C54.1321 77.5134 52.8665 77.4092 52.2114 77.2901C51.5563 77.1561 50.7226 76.9476 50.3503 76.8284C49.9781 76.6944 49.1145 76.3371 48.4147 76.0096C47.715 75.682 46.5834 75.027 45.8836 74.5654C45.1988 74.1039 44.0821 73.1807 43.427 72.5256C42.757 71.8706 41.9083 70.8283 41.5361 70.2179C41.149 69.6074 40.6278 68.595 40.3598 67.9845C40.1067 67.3742 39.8387 66.734 39.7642 66.5701C39.7047 66.4063 39.5708 66.0043 39.4814 65.6768C39.3921 65.3492 39.1836 64.3814 39.0348 63.5179C38.871 62.6394 38.737 61.3292 38.737 60.5401C38.737 59.7659 38.8709 58.4259 39.0198 57.5623C39.1836 56.6988 39.3921 55.731 39.4814 55.4034C39.5707 55.0759 39.7494 54.525 39.8685 54.1677C39.9876 53.8253 40.1364 53.4233 40.2109 53.2744C40.2704 53.1404 40.6427 52.4256 41.0149 51.6812C41.3872 50.9368 41.9381 49.969 42.2359 49.5223C42.5485 49.0757 43.2333 48.1824 43.7842 47.5421C44.3202 46.9019 45.2434 45.9787 45.8092 45.5172C46.375 45.0407 47.2534 44.3856 47.7447 44.0581C48.2361 43.7305 49.2039 43.1945 49.9036 42.867C50.6034 42.5245 51.467 42.1524 51.8392 42.0333C52.2114 41.9141 52.9857 41.7056 53.5514 41.5716C54.1172 41.4376 54.8616 41.3036 55.1892 41.2738Z" fill="#7BB92E"/>
<path d="M84.0827 142.429C83.1744 142.489 82.0131 142.608 81.4771 142.697C80.9411 142.772 79.8096 142.95 78.946 143.084C78.0824 143.203 76.3404 143.561 75.0749 143.844C73.8093 144.141 72.648 144.439 72.4991 144.514C72.3651 144.588 71.8589 144.722 71.3973 144.811C70.9209 144.901 70.2509 145.094 69.9085 145.258C69.5511 145.407 69.2236 145.541 69.164 145.541C69.0896 145.541 68.4047 145.794 67.6305 146.107C66.8562 146.419 65.546 147.015 64.7271 147.402C63.9082 147.804 62.6278 148.489 61.8982 148.936C61.1687 149.382 59.918 150.186 59.1438 150.707C58.3696 151.229 57.104 152.211 56.3447 152.881C55.5705 153.551 54.5283 154.579 54.022 155.144C53.5009 155.725 52.8905 156.425 52.6374 156.708C52.3991 156.991 51.8036 157.795 51.2974 158.494C50.806 159.194 50.1063 160.266 49.734 160.877C49.3767 161.487 48.7663 162.633 48.394 163.408C48.0218 164.182 47.6198 165.06 47.5007 165.343C47.3667 165.626 47.1583 166.207 47.0243 166.609C46.8903 167.026 46.5776 167.964 46.3394 168.693C46.116 169.438 45.8183 170.435 45.6843 170.927C45.5652 171.418 45.3269 172.43 45.1632 173.16C44.9994 173.904 44.7909 175.14 44.7016 175.914C44.6123 176.689 44.4931 178.282 44.4336 179.443C44.374 180.604 44.374 182.719 44.4485 184.133C44.508 185.547 44.6569 187.513 44.776 188.495C44.8951 189.478 45.1334 190.997 45.2971 191.89C45.4609 192.769 45.8331 194.272 46.116 195.24C46.3989 196.193 46.6967 197.086 46.7711 197.205C46.8456 197.325 46.9796 197.727 47.0838 198.099C47.1731 198.471 47.6198 199.573 48.0516 200.555C48.4982 201.538 49.0342 202.685 49.2427 203.087C49.466 203.503 49.8829 204.233 50.1807 204.724C50.4785 205.216 51.074 206.154 51.5207 206.809C51.9674 207.464 52.4736 208.179 52.6522 208.387C52.8309 208.595 53.1585 209.027 53.4116 209.34C53.6647 209.653 54.2305 210.352 54.692 210.888C55.1536 211.424 56.1214 212.437 56.8509 213.137C57.5805 213.836 58.8311 214.938 59.6202 215.593C60.4093 216.248 61.5111 217.097 62.0769 217.484C62.6278 217.886 63.4318 218.422 63.8338 218.69C64.2507 218.958 65.1887 219.524 65.9182 219.941C66.6478 220.343 67.9133 220.998 68.7173 221.37C69.5065 221.757 70.8464 222.338 71.6802 222.68C72.5289 223.008 73.8838 223.499 74.7027 223.767C75.5216 224.035 76.7276 224.393 77.3827 224.571C78.0378 224.735 79.4373 225.048 80.5093 225.256C81.5813 225.465 83.6211 225.777 85.0504 225.941C86.986 226.179 88.5344 226.269 91.0804 226.269C93.6413 226.269 95.2195 226.194 97.3338 225.941C98.8822 225.762 100.594 225.524 101.13 225.405C101.666 225.286 102.664 225.092 103.364 224.973C104.064 224.854 105.24 224.571 105.969 224.318C106.699 224.08 108.009 223.618 108.873 223.291C109.736 222.963 111.106 222.397 111.925 222.01C112.744 221.638 113.518 221.251 113.637 221.177C113.756 221.087 114.099 220.909 114.382 220.76C114.664 220.626 115.558 220.105 116.362 219.613C117.166 219.122 118.074 218.556 118.387 218.348C118.699 218.139 119.235 217.797 119.578 217.573C119.905 217.335 120.307 217.037 120.456 216.903C120.605 216.755 121.067 216.367 121.454 216.04C121.856 215.712 122.526 215.147 122.928 214.789C123.345 214.432 124.387 213.419 125.221 212.556C126.069 211.692 127.052 210.62 127.38 210.174C127.722 209.742 128.407 208.789 128.898 208.089C129.39 207.375 130 206.451 130.253 206.049C130.521 205.647 131.012 204.784 131.37 204.129C131.727 203.474 132.233 202.461 132.501 201.895C132.769 201.315 133.186 200.362 133.439 199.781C133.677 199.186 133.886 198.59 133.886 198.471C133.886 198.352 134.02 197.89 134.184 197.473C134.347 197.042 134.69 195.88 134.943 194.898C135.181 193.915 135.524 192.247 135.688 191.175C135.851 190.118 136.06 188.6 136.134 187.825C136.209 187.051 136.283 184.833 136.283 182.912C136.283 180.991 136.224 178.818 136.134 178.073C136.06 177.344 135.881 175.929 135.747 174.947C135.613 173.964 135.405 172.758 135.271 172.267C135.152 171.775 134.928 170.867 134.779 170.257C134.63 169.646 134.377 168.678 134.184 168.098C134.005 167.532 133.722 166.683 133.558 166.237C133.395 165.79 133.127 165.09 132.948 164.673C132.769 164.271 132.293 163.289 131.891 162.514C131.489 161.74 130.789 160.504 130.342 159.76C129.881 159.03 128.928 157.72 128.213 156.857C127.499 155.993 126.427 154.817 125.831 154.236C125.221 153.655 124.193 152.777 123.538 152.271C122.883 151.765 122.288 151.288 122.198 151.214C122.109 151.154 121.484 150.722 120.784 150.276C120.084 149.814 118.55 148.965 117.359 148.37C116.168 147.789 115.066 147.223 114.903 147.149C114.739 147.06 113.994 146.762 113.265 146.479C112.535 146.196 111.091 145.705 110.064 145.362C109.036 145.035 107.801 144.648 107.309 144.499C106.818 144.35 105.508 144.022 104.406 143.769C103.304 143.516 101.22 143.144 99.7904 142.935C98.3611 142.742 96.2469 142.504 95.1004 142.414C93.954 142.34 91.3782 142.28 89.3682 142.295C87.3582 142.295 84.9909 142.355 84.0827 142.429Z" fill="#D2D832"/>
<path d="M124.422 41.3483C125.941 41.3334 126.864 41.4078 127.847 41.6163C128.576 41.7652 129.753 42.1076 130.452 42.3607C131.152 42.6287 132.418 43.2541 133.266 43.7603C134.457 44.4601 135.202 45.0706 136.482 46.3212C137.465 47.3039 138.462 48.4652 138.969 49.2246C139.43 49.9243 140.041 50.9219 140.324 51.4579C140.592 51.9939 141.008 52.8872 141.217 53.4679C141.425 54.0337 141.693 54.9121 141.827 55.4034C141.946 55.8948 142.11 56.8328 142.2 57.4879C142.289 58.143 142.363 59.1852 142.363 59.7957C142.363 60.4061 142.289 61.4781 142.2 62.1779C142.11 62.8777 141.842 64.2177 141.589 65.1557C141.351 66.0936 141.083 66.9422 141.008 67.0168C140.934 67.0912 140.874 67.255 140.874 67.3443C140.874 67.4488 140.636 68.0294 140.353 68.6099C140.056 69.2054 139.683 69.935 139.505 70.2179C139.341 70.5008 138.954 71.0368 138.671 71.409C138.373 71.7812 137.926 72.3023 137.688 72.5703C137.435 72.8532 136.75 73.4338 136.184 73.8507C135.619 74.2823 135.038 74.6843 134.919 74.744C134.8 74.7887 134.368 75.0419 133.951 75.2801C133.549 75.5331 133.103 75.7713 132.983 75.816C132.864 75.8607 132.537 75.9947 132.284 76.1138C132.016 76.2329 131.673 76.3223 131.524 76.3223C131.375 76.3223 131.197 76.3818 131.122 76.4562C131.033 76.5456 130.437 76.7243 129.782 76.8732C128.889 77.0668 127.951 77.1412 126.06 77.1412C124.527 77.1412 123.172 77.0668 122.636 76.9477C122.144 76.8435 121.37 76.6498 120.923 76.5307C120.477 76.3967 119.926 76.2031 119.702 76.084C119.464 75.9649 119.226 75.8757 119.137 75.8756C119.047 75.8756 118.407 75.5928 117.692 75.2355C116.963 74.8781 115.876 74.2527 115.266 73.8358C114.655 73.4339 113.643 72.5852 113.032 71.9747C112.422 71.3643 111.588 70.3667 111.171 69.7562C110.769 69.1458 110.159 68.0888 109.816 67.389C109.459 66.6892 109.012 65.5874 108.819 64.9323C108.61 64.2772 108.327 63.1457 108.193 62.4012C107.985 61.3292 107.955 60.5252 108.015 58.3068C108.059 56.7882 108.164 55.2844 108.268 54.9568C108.357 54.6292 108.64 53.721 108.893 52.9468C109.146 52.1726 109.548 51.1006 109.786 50.5646C110.025 50.0286 110.576 49.0608 111.022 48.4057C111.454 47.7506 112.273 46.753 112.839 46.2021C113.39 45.6513 114.462 44.7876 115.191 44.2963C115.921 43.8049 117.067 43.1498 117.722 42.8372C118.377 42.5394 119.286 42.1673 119.732 42.0333C120.179 41.8993 120.953 41.6907 121.444 41.5716C121.981 41.4376 123.157 41.3483 124.422 41.3483Z" fill="#EFDFB1"/>
<path d="M55.189 41.2738C55.5167 41.2441 56.6184 41.2441 57.6457 41.2738C58.673 41.3185 59.879 41.4376 60.3257 41.5716C60.7723 41.7056 61.5614 41.929 62.0825 42.0927C62.5887 42.2416 63.363 42.5544 63.7947 42.7777C64.2116 43.001 64.8668 43.3732 65.239 43.6114C65.6112 43.8645 66.2663 44.3707 66.7129 44.7429C67.1596 45.1152 67.9785 45.9639 68.5294 46.619C69.0803 47.2741 69.661 48.0483 69.8247 48.3312C70.0034 48.6142 70.3608 49.3139 70.6436 49.8946C70.9265 50.4752 71.269 51.2048 71.3881 51.5323C71.5221 51.8599 71.6858 52.3661 71.7751 52.649C71.8496 52.9319 71.9985 53.4381 72.0879 53.7657C72.1772 54.0933 72.341 55.0611 72.4601 55.9245C72.5792 56.7881 72.6834 57.8899 72.6834 58.3812C72.6685 58.8726 72.5792 59.9148 72.4601 60.689C72.341 61.4632 72.1474 62.431 72.0283 62.8479C71.924 63.2499 71.6858 64.0093 71.5072 64.5155C71.3285 65.0366 70.9861 65.9001 70.7181 66.451C70.465 67.0168 69.9885 67.8804 69.6758 68.3866C69.3632 68.9077 68.7527 69.8159 68.306 70.3966C67.8594 70.9921 66.9363 72.0194 66.2514 72.6894C65.5814 73.3445 64.5392 74.2378 63.9734 74.6547C63.4077 75.0716 62.3654 75.682 61.6657 76.0096C60.9659 76.3371 60.1024 76.6945 59.7301 76.8136C59.3579 76.9476 58.5241 77.1411 57.869 77.2751C57.199 77.4091 55.9632 77.5134 55.0401 77.5134C54.1319 77.5134 52.8664 77.4092 52.2112 77.2901C51.5562 77.1561 50.7224 76.9476 50.3501 76.8284C49.9779 76.6945 49.1143 76.3371 48.4146 76.0096C47.7148 75.682 46.5832 75.027 45.8835 74.5655C45.1986 74.1039 44.0819 73.1808 43.4268 72.5256C42.7568 71.8706 41.9081 70.8283 41.5359 70.2179C41.1488 69.6074 40.6276 68.595 40.3596 67.9845C40.1065 67.3742 39.8385 66.734 39.764 66.5701C39.7045 66.4063 39.5706 66.0043 39.4812 65.6768C39.3919 65.3492 39.1835 64.3814 39.0346 63.5179C38.8708 62.6395 38.7368 61.3292 38.7368 60.5401C38.7368 59.7659 38.8707 58.4259 39.0196 57.5623C39.1834 56.6988 39.3919 55.731 39.4812 55.4034C39.5706 55.0759 39.7492 54.525 39.8683 54.1677C39.9874 53.8253 40.1363 53.4233 40.2107 53.2744C40.2703 53.1404 40.6425 52.4256 41.0148 51.6812C41.387 50.9368 41.9379 49.969 42.2357 49.5223C42.5483 49.0757 43.2332 48.1824 43.784 47.5421C44.32 46.9019 45.2432 45.9787 45.809 45.5172C46.3748 45.0407 47.2532 44.3856 47.7446 44.0581C48.2359 43.7305 49.2037 43.1945 49.9035 42.867C50.6032 42.5245 51.4668 42.1524 51.839 42.0333C52.2112 41.9141 52.9855 41.7056 53.5512 41.5716C54.117 41.4376 54.8615 41.3036 55.189 41.2738Z" fill="#EFDFB1"/>
<path d="M57.524 53.3058C56.9582 53.41 56.0351 53.7078 55.4693 53.9609C54.7993 54.2736 54.174 54.7202 53.5338 55.3456C53.0275 55.8667 52.4171 56.6558 52.1789 57.1024C51.9407 57.5491 51.6578 58.1893 51.5387 58.5169C51.4047 58.8444 51.226 59.574 51.1069 60.1547C50.9878 60.7353 50.8984 61.7329 50.8984 62.388C50.8984 63.0431 50.9729 63.9811 51.0622 64.4724C51.1516 64.9638 51.3302 65.6338 51.4493 65.9613C51.5833 66.2889 51.7769 66.8249 51.9109 67.1524C52.0449 67.48 52.4171 68.1798 52.7595 68.7009C53.0871 69.2369 53.6529 69.9218 54.0251 70.2493C54.3973 70.562 54.8887 70.9193 55.1418 71.0235C55.3949 71.1278 55.9309 71.3213 56.3329 71.4553C56.7647 71.5893 57.5835 71.6935 58.2684 71.6935C58.9235 71.6935 59.6531 71.634 59.9062 71.5595C60.1593 71.4851 60.7549 71.3064 61.2462 71.1575C61.7375 71.0086 62.4969 70.6513 62.9435 70.3684C63.3902 70.0706 64.0155 69.5346 64.3282 69.1624C64.6557 68.7902 65.1471 68.0309 65.43 67.4502C65.7129 66.8695 66.0702 65.9167 66.234 65.3211C66.4573 64.5171 66.5318 63.7875 66.5318 62.4178C66.5318 61.1075 66.4424 60.3184 66.2489 59.5591C66.0851 58.9784 65.8766 58.2787 65.7724 57.9958C65.6682 57.7129 65.3109 57.0429 64.9833 56.5218C64.6409 55.9858 64.0304 55.2711 63.6284 54.8989C63.2115 54.5416 62.5118 54.08 62.0651 53.8715C61.6184 53.6631 60.7549 53.3951 60.1593 53.2909C59.5786 53.1718 58.9682 53.0824 58.8193 53.0973C58.6853 53.1122 58.0898 53.2016 57.524 53.3058ZM120.281 53.3356C119.834 53.4696 119.03 53.8418 118.509 54.1842C117.913 54.5713 117.318 55.1222 116.886 55.688C116.529 56.1793 116.052 56.9089 115.844 57.3258C115.65 57.7278 115.412 58.2787 115.337 58.5169C115.263 58.7551 115.069 59.4847 114.906 60.11C114.712 60.914 114.623 61.7775 114.623 62.9538C114.623 64.0258 114.712 64.9042 114.861 65.4402C114.995 65.8869 115.308 66.7206 115.576 67.3013C115.873 67.9564 116.365 68.686 116.945 69.3113C117.571 69.9664 118.151 70.428 118.807 70.7406C119.328 71.0086 120.266 71.3213 120.876 71.4553C121.487 71.5893 122.395 71.6935 122.886 71.6935C123.377 71.6935 124.107 71.5893 124.524 71.4553C124.926 71.3362 125.432 71.1426 125.641 71.0533C125.849 70.964 126.311 70.6513 126.683 70.3833C127.055 70.1004 127.606 69.5346 127.919 69.1029C128.246 68.686 128.648 68.0011 128.827 67.5991C129.02 67.1822 129.244 66.6462 129.333 66.408C129.422 66.1698 129.601 65.5742 129.72 65.0978C129.869 64.5469 129.958 63.6238 129.958 62.4624C129.958 61.3011 129.869 60.3482 129.72 59.7378C129.586 59.2315 129.422 58.6807 129.363 58.5169C129.303 58.3531 129.08 57.8469 128.857 57.4002C128.648 56.9535 128.216 56.2538 127.904 55.8518C127.606 55.4498 126.936 54.8244 126.415 54.4671C125.909 54.1098 124.985 53.6631 124.33 53.4547C123.497 53.1867 122.901 53.0824 122.142 53.0973C121.576 53.1122 120.727 53.2164 120.281 53.3356Z" fill="#0D592E"/>
<path d="M36.5784 66.3668C36.6999 66.7477 37.2135 67.985 37.7235 69.1256C38.2491 70.2598 38.9361 71.5624 39.2847 72.0057C39.6333 72.449 40.2352 73.238 40.6497 73.752C41.0417 74.2557 41.7303 74.9891 42.1656 75.3768C42.5939 75.7479 43.2893 76.3217 43.7124 76.6361C44.1512 76.944 44.987 77.4594 45.5852 77.7991C46.1834 78.1388 47.4546 78.6893 48.3978 79.023C49.3411 79.3567 50.4231 79.672 50.7959 79.7329C51.1757 79.8105 52.0756 79.9074 52.8158 79.9725C53.5562 80.0377 54.4803 80.1049 54.8791 80.0962C55.2848 80.1042 55.8916 80.0679 56.2297 80.0451C56.5608 80.0057 57.1608 79.9528 57.5456 79.9107C57.9306 79.8685 59.0211 79.6315 59.9815 79.3896C60.9419 79.1478 62.1451 78.7856 62.66 78.5719C63.1679 78.3414 64.2185 77.7878 64.9742 77.3173C65.73 76.8468 66.6539 76.2084 67.0353 75.8933C67.408 75.6014 68.0927 75.0036 68.5399 74.5828C69.0027 74.1555 69.748 73.3953 70.2004 72.8548C70.6753 72.3245 71.3582 71.4138 71.7429 70.8425C72.1432 70.2647 72.8104 69.1841 73.2107 68.43C73.6266 67.6693 74.2728 66.1859 74.6557 65.1254C75.0299 64.088 75.4803 62.5291 75.6534 61.7124C75.8266 60.8957 75.9804 59.4598 75.9975 58.5315C76.0146 57.6032 75.9866 56.478 75.9379 56.0082C75.9048 55.5319 75.7189 54.5114 75.554 53.7174C75.3821 52.9068 74.9154 51.4736 74.4851 50.437C74.0618 49.4171 73.3627 48.0412 72.9325 47.3573C72.4868 46.6799 71.8796 45.8343 71.5813 45.4681C71.2674 45.1084 70.4904 44.294 69.8209 43.6507C69.1515 43.0073 67.9377 42.0215 67.1278 41.4364C66.325 40.868 64.8371 40.0155 63.8452 39.5648C62.8464 39.0974 61.3587 38.5976 60.5455 38.4451C59.7253 38.2759 58.4214 38.131 57.6568 38.0956C56.8992 38.0768 56.1034 38.0543 55.897 38.042C55.6976 38.0463 55.2139 38.0708 54.829 38.1129C54.4442 38.1551 53.3328 38.342 52.3585 38.5504C51.3617 38.7485 49.9262 39.1679 49.0992 39.5112C48.2879 39.8479 46.9461 40.5812 46.1106 41.124C45.282 41.6835 44.3651 42.3386 44.0634 42.5814C43.7618 42.8242 43.2678 43.2644 42.9489 43.5536C42.6456 43.8362 42.2937 44.1782 42.1723 44.3266C42.0597 44.4518 41.4843 45.1807 40.8776 45.9225C40.271 46.6643 39.5137 47.704 39.1844 48.2326C38.8621 48.778 38.2451 49.9356 37.831 50.8327C37.41 51.7131 36.8728 53.1514 36.6529 53.9875C36.4173 54.8301 36.1403 56.1015 36.0261 56.7958C35.9119 57.49 35.8013 58.81 35.7842 59.7382C35.7515 60.673 35.764 61.8047 35.8127 62.2745C35.8614 62.7443 36.0038 63.7045 36.127 64.3981C36.2503 65.0917 36.4569 65.986 36.5784 66.3668Z" fill="#F9EAD8"/>
<path d="M62.4897 60.4472C57.0356 57.3644 52.609 57.9967 47.9453 60.2891" stroke="#0D592E" stroke-width="10.1244" stroke-linecap="round"/>
<path d="M136.449 42.2969C136.122 42.0675 134.961 41.3977 133.862 40.8034C132.755 40.2241 131.415 39.6115 130.866 39.4757C130.318 39.3399 129.356 39.0863 128.712 38.9354C128.091 38.7785 127.093 38.6245 126.508 38.5882C125.939 38.561 125.031 38.5396 124.5 38.5546C123.96 38.5847 122.974 38.6991 122.286 38.8046C121.598 38.91 120.24 39.2718 119.276 39.6004C118.313 39.929 117.249 40.3601 116.911 40.5471C116.558 40.725 115.772 41.2165 115.135 41.6326C114.497 42.0487 113.71 42.5794 113.393 42.8388C113.061 43.0891 112.592 43.5023 112.333 43.7345C112.089 43.9757 111.636 44.3979 111.35 44.6753C111.065 44.9528 110.326 45.8334 109.696 46.6356C109.066 47.4378 108.312 48.4903 108.024 48.9879C107.753 49.4947 107.237 50.6045 106.91 51.4611C106.583 52.3176 106.221 53.4155 106.102 53.9102C105.977 54.3807 105.784 55.2946 105.676 55.9159C105.559 56.5523 105.415 57.6351 105.375 58.356C105.311 59.0829 105.307 60.2472 105.341 60.95C105.365 61.6678 105.477 62.9589 105.608 63.8185C105.73 64.6932 106.101 66.2948 106.43 67.3898C106.753 68.4606 107.328 69.999 107.68 70.7652C108.032 71.5314 108.772 72.7832 109.318 73.5404C109.863 74.2975 110.563 75.1845 110.886 75.5314C111.199 75.8934 111.964 76.5963 112.575 77.1303C113.203 77.6733 114.443 78.5303 115.415 79.0915C116.371 79.6436 117.765 80.3074 118.524 80.5851C119.292 80.8476 120.292 81.1433 120.754 81.2489C121.224 81.3395 122.343 81.5026 123.271 81.5963C124.199 81.6899 125.774 81.7144 126.781 81.6724C127.772 81.6213 129.487 81.3652 130.56 81.1C131.649 80.8438 133.152 80.3041 133.901 79.9122C134.665 79.5293 135.806 78.8207 136.445 78.3653C137.069 77.901 137.725 77.4155 137.899 77.2948C138.058 77.1652 138.434 76.8394 138.72 76.562C139.005 76.2845 139.791 75.431 140.452 74.6469C141.138 73.8568 142.046 72.6113 142.507 71.812C142.96 71.0279 143.602 69.5893 143.951 68.6242C144.283 67.65 144.629 66.5431 144.727 66.157C144.824 65.7709 144.958 65.1044 145.042 64.6701C145.117 64.2509 145.195 63.7532 145.204 63.5571C145.219 63.3852 145.245 62.435 145.289 61.4547C145.332 60.4745 145.318 59.1594 145.266 58.5259C145.198 57.8835 144.999 56.5624 144.793 55.5791C144.603 54.6048 144.171 53.1085 143.845 52.2971C143.528 51.4706 142.986 50.273 142.66 49.6426C142.334 49.0121 141.629 47.8809 141.083 47.1237C140.547 46.3515 139.855 45.4495 139.533 45.1026C139.21 44.7557 138.517 44.0738 138 43.5941C137.482 43.1145 136.777 42.5262 136.449 42.2969Z" fill="#F9EAD8"/>
<path d="M132.623 60.4472C127.168 57.3644 122.742 57.9967 118.078 60.2891" stroke="#0D592E" stroke-width="10.1244" stroke-linecap="round"/>
</g>
<defs>
<clipPath id="clip0_317_4569">
<rect width="181" height="181" fill="white"/>
</clipPath>
</defs>
</svg>
