<svg width="1024" height="1024" viewBox="0 0 1024 1024" fill="none" xmlns="http://www.w3.org/2000/svg">
<g clip-path="url(#clip0_2203_492)">
<circle cx="512.5" cy="511.5" r="302.5" fill="white" fill-opacity="0.7"/>
<path d="M532.744 25C540.446 26.5442 553.364 26.5069 561.678 27.3066C580.748 29.2007 599.69 32.2071 618.409 36.3105C725.62 60.251 821.537 119.859 890.469 205.388C904.418 222.67 917.345 239.959 928.647 259.099C930.244 261.804 932.833 265.591 933.936 268.448C934.967 271.404 937.062 274.566 938.582 277.341C942.273 284.071 946.335 290.639 949.656 297.566C959.89 319.337 968.655 340.923 975.867 363.904C978.656 372.802 981.54 380.53 983.887 389.689C989.521 411.607 993.603 433.896 996.102 456.388C996.809 463.237 997.395 470.1 997.855 476.971C998.069 480.466 998.264 489.85 999 492.639V531.202C997.484 538.58 997.589 551.874 996.81 560.06C994.947 579.044 991.978 597.901 987.916 616.539C967.91 707.782 921.839 791.252 855.297 856.806C837.462 874.589 815.778 893.65 795.012 908.021C736.033 949.697 668.636 977.937 597.562 990.76C584.15 993.14 570.638 994.926 557.064 996.109C553.458 996.428 536.145 997.435 533.817 998H492.638C489.752 997.292 473.686 996.57 469.292 996.176C455.538 994.931 441.842 993.116 428.237 990.74C356.585 978.036 288.641 949.607 229.299 907.489C208.001 892.642 187.198 874.189 168.897 855.846C102.523 790.121 56.6646 706.532 36.8955 615.237C32.761 595.82 29.752 576.18 27.8848 556.411C27.1319 548.715 27.4701 537.469 26 530.376V493.491C26.8853 489.234 27.3573 473.299 27.8213 467.833C29.1724 453.174 31.1575 438.58 33.7715 424.093C41.9178 380.306 55.7697 337.775 74.9736 297.59C79.8177 287.326 86.9887 277.6 91.0342 268.522L91.1943 268.154C100.66 248.642 117.679 227.212 130.735 209.794C142.463 194.149 154.543 181.332 168.306 167.652C233.469 101.981 316.135 56.4233 406.457 36.4043C425.465 32.2406 444.701 29.2014 464.066 27.3027C472.381 26.4791 484.976 26.5367 492.662 25H532.744ZM525.822 268.755C440.192 264.056 358.42 304.827 310.641 376.045C262.861 447.263 256.142 538.387 292.963 615.842C330.454 694.708 407.365 747.401 494.446 753.891C581.527 760.376 665.396 719.655 714.16 647.217C762.995 574.665 769.096 481.473 730.133 403.176C691.17 324.879 613.15 273.547 525.822 268.755Z" fill="#FCC117"/>
<path d="M26 493.491C26.8854 489.234 27.357 473.299 27.8209 467.833C29.172 453.173 31.1573 438.58 33.7712 424.093C41.9176 380.305 55.77 337.775 74.974 297.589C79.8181 287.326 86.9888 277.599 91.0342 268.522L91.1939 268.154L237.324 520.17L276.509 588.01C278.922 592.186 290.786 614.021 292.963 615.841C330.454 694.707 407.365 747.4 494.446 753.89C581.527 760.375 665.396 719.654 714.16 647.216C712.136 652.974 705.817 662.614 702.653 668.263C691.175 688.74 679.236 708.908 667.543 729.266L638.914 778.557L512.614 998H492.638C489.752 997.292 473.685 996.57 469.292 996.175C455.538 994.931 441.842 993.116 428.238 990.74C356.585 978.036 288.641 949.606 229.299 907.489C208.001 892.642 187.198 874.189 168.897 855.846C102.523 790.121 56.6644 706.532 36.8953 615.237C32.7608 595.82 29.7525 576.18 27.8852 556.411C27.1324 548.714 27.4702 537.469 26 530.375V493.491Z" fill="#279A47"/>
<path d="M492.664 25H532.745C540.447 26.5442 553.365 26.5067 561.679 27.3065C580.749 29.2005 599.691 32.2069 618.41 36.3105C725.621 60.2509 821.538 119.859 890.47 205.388C904.419 222.671 917.346 239.959 928.649 259.099C930.245 261.804 932.835 265.591 933.937 268.448L663.811 268.457L576.117 268.45C560.045 268.455 541.715 268.098 525.823 268.755C440.193 264.055 358.421 304.827 310.642 376.044C262.861 447.262 256.144 538.386 292.965 615.841C290.787 614.021 278.923 592.186 276.51 588.01L237.326 520.171L91.1953 268.155C100.661 248.642 117.681 227.212 130.737 209.794C142.465 194.148 154.544 181.332 168.307 167.652C233.471 101.982 316.136 56.4235 406.458 36.4045C425.466 32.2407 444.702 29.2016 464.068 27.3029C472.382 26.4792 484.978 26.5367 492.664 25Z" fill="#E1382E"/>
<path d="M502.246 319.214C608.445 313.55 699.122 395.054 704.776 501.252C710.429 607.45 628.917 698.118 522.723 703.762C416.537 709.406 325.88 627.908 320.226 521.724C314.573 415.541 396.064 324.877 502.246 319.214Z" fill="#1974E8"/>
</g>
<defs>
<clipPath id="clip0_2203_492">
<rect width="973" height="973" fill="white" transform="translate(26 25)"/>
</clipPath>
</defs>
</svg>
