<svg width="1024" height="1024" viewBox="0 0 1024 1024" fill="none" xmlns="http://www.w3.org/2000/svg">
<g clip-path="url(#clip0_2204_520)">
<path d="M-55 -56H1080V1079H-55V-56Z" fill="#14130D"/>
<path d="M511.551 106.107C522.701 105.208 538.435 117.481 548.178 122.635C558.802 128.258 569.127 134.88 579.579 140.8L744.326 235.817L812.448 275.184C822.213 280.666 831.933 286.224 841.615 291.858C853.065 298.481 866.421 304.168 866.859 319.439C867.435 339.451 867.203 359.498 867.203 379.523L867.192 493.157V629.932C867.203 649.667 867.23 669.408 867.208 689.137C867.197 696.464 867.657 707.442 864.232 713.949C861.095 718.604 858.502 721.187 853.58 724.096C839.094 732.653 824.313 741.032 809.738 749.434L725.062 798.32L587.748 877.593L552.146 898.148C512.559 921.047 517.497 924.018 477.282 900.73L437.294 877.565L318.326 808.85L215.662 749.634L183.49 731.04C176.129 726.784 165.517 722.057 161.263 714.547C156.765 707.393 157.792 695.311 157.787 686.915L157.798 656.118L157.8 553.092L157.798 399.586L157.771 349.605C157.768 339.963 157.641 330.032 158.02 320.444C158.213 315.563 159.581 310.11 162.744 306.43C164.503 304.384 166.338 301.888 168.738 300.485C185.11 290.913 201.676 281.406 218.091 271.933L317.026 214.809L433.898 147.342L478.75 121.567C489.374 115.405 499.147 107.753 511.551 106.107Z" fill="#72716F"/>
<path d="M511.551 106.109L512.526 106.969C512.87 126.66 512.493 147.674 512.487 167.449L512.609 316.491L738.75 316.375L801.314 316.344C807.15 316.341 825.588 315.974 830.188 316.859C834.616 318.066 835.84 318.515 838.883 321.926C838.722 322.375 838.567 322.824 838.406 323.273C824.607 331.415 803.292 343.622 789.803 351.396L604.689 458.274L543.866 493.393C534.151 499.004 519.964 506.675 510.847 512.793L510.426 512.654L270.854 651.088L196.786 693.739C185.561 700.245 171.975 707.616 161.263 714.549C156.765 707.395 157.792 695.313 157.787 686.917L157.798 656.12L157.8 553.094L157.798 399.588L157.771 349.607C157.768 339.965 157.641 330.034 158.02 320.446C158.213 315.565 159.581 310.112 162.744 306.432C164.503 304.386 166.338 301.89 168.738 300.486C185.11 290.915 201.676 281.408 218.091 271.935L317.026 214.811L433.898 147.343L478.75 121.569C489.374 115.407 499.147 107.755 511.551 106.109Z" fill="#555451"/>
<path d="M830.189 316.857C834.617 318.064 835.842 318.514 838.884 321.925C838.724 322.374 838.568 322.823 838.408 323.271C824.608 331.414 803.294 343.621 789.804 351.395L604.691 458.273L543.867 493.391C534.152 499.003 519.965 506.673 510.848 512.792L510.427 512.653C506.204 506.662 487.891 497.272 480.862 493.208L434.688 466.615L271.045 372.111L220.11 342.73C210.627 337.267 201.048 331.895 191.733 326.159C187.985 323.851 185.271 322.154 188.686 317.751C193.856 316.427 225.742 316.923 232.543 316.923L336.361 316.948L662.294 316.986L770.529 316.987C790.026 316.986 810.77 317.326 830.189 316.857Z" fill="#FEFEFE"/>
<path d="M511.551 106.107C522.701 105.208 538.435 117.481 548.178 122.635C558.802 128.258 569.127 134.88 579.579 140.8L744.326 235.817L812.448 275.184C822.213 280.666 831.933 286.224 841.615 291.858C853.065 298.481 866.421 304.168 866.859 319.439C867.435 339.451 867.203 359.498 867.203 379.523L867.192 493.157V629.932C867.203 649.667 867.23 669.408 867.208 689.137C867.197 696.464 867.657 707.442 864.232 713.949C860.026 712.757 825.466 692.08 819.403 688.561L732.128 638.301C716.15 629.062 696.986 617.235 681.003 608.845L799.906 402.838L827.128 355.826C831.518 348.247 837.082 339.427 840.479 331.365C841.859 328.08 840.446 324.916 838.883 321.924C835.84 318.513 834.616 318.064 830.188 316.857C825.588 315.972 807.15 316.339 801.314 316.342L738.75 316.373L512.609 316.489L512.487 167.447C512.493 147.672 512.87 126.658 512.526 106.967L511.551 106.107Z" fill="#42413E"/>
<path d="M838.886 321.926C840.449 324.917 841.862 328.082 840.482 331.367C837.085 339.428 831.52 348.249 827.131 355.828L799.909 402.839L681.005 608.846L572.981 795.894L540.15 852.816C537.085 858.147 521.573 887.137 517.14 889.327C513.205 888.312 512.518 886.533 512.451 882.454C512.296 872.484 512.44 862.481 512.451 852.506L512.468 789.992L512.462 594.055L512.501 547.763C512.512 537.116 513.299 522.724 510.85 512.793C519.966 506.674 534.154 499.004 543.869 493.392L604.692 458.274L789.806 351.396C803.295 343.622 824.609 331.415 838.409 323.272C838.57 322.824 838.725 322.375 838.886 321.926Z" fill="#D5D4D3"/>
</g>
<defs>
<clipPath id="clip0_2204_520">
<rect width="1024" height="1024" rx="512" fill="white"/>
</clipPath>
</defs>
</svg>
