<svg width="1024" height="1024" viewBox="0 0 1024 1024" fill="none" xmlns="http://www.w3.org/2000/svg">
<g clip-path="url(#clip0_2194_283)">
<path d="M360.41 366.673C322.326 362.25 293.223 351.972 265.226 324.163C237.989 296.841 222.625 259.882 222.469 221.305C222.754 183.05 238.051 146.437 265.066 119.347C283.262 101.131 305.945 88.0413 330.822 81.3996C354.979 75.1338 391.527 76.7927 417.597 76.7923L512.007 76.8286L606.049 76.7809C666.088 76.7743 712.419 72.1159 759.604 119.372C787.13 146.701 802.489 183.955 802.233 222.736C802.002 261.041 786.547 297.684 759.277 324.583C733.403 350.204 702.047 363.262 666.096 366.551C657.288 366.005 648.447 366.266 639.687 367.328C631.302 366.255 607.342 366.688 597.744 366.653L512.725 366.487L512.589 366.94C507.02 365.22 374.135 365.998 360.41 366.673Z" fill="#FE7164"/>
<path d="M360.41 366.673C322.326 362.25 293.223 351.972 265.226 324.163C237.989 296.841 222.625 259.882 222.469 221.305C222.754 183.05 238.051 146.437 265.066 119.347C283.262 101.131 305.945 88.0413 330.822 81.3996C354.979 75.1338 391.527 76.7927 417.597 76.7923L512.007 76.8286C512.868 101.242 512.174 129.305 512.182 154.041L512.222 298.08C512.222 309.821 510.618 357.608 512.725 366.487L512.589 366.94C507.02 365.22 374.135 365.998 360.41 366.673Z" fill="#F34E1F"/>
<path d="M360.41 366.673C374.135 365.998 507.02 365.22 512.589 366.94L512.653 450.47C512.653 462.407 512.046 484.324 513.1 495.442C511.935 506.087 511.959 516.828 513.163 527.468C512.206 542.067 512.677 559.898 512.669 574.886V655.928L411.275 655.981C393.564 655.986 372.721 656.487 355.224 655.745C321.779 651.362 294.298 640.561 269.207 617.374C240.573 590.774 223.769 553.828 222.537 514.766C221.199 477.309 236.712 439.019 262.199 411.729C287.781 384.444 323.039 368.268 360.41 366.673Z" fill="#A159FE"/>
<path d="M355.226 655.746C372.723 656.488 393.566 655.987 411.277 655.982L512.671 655.929L512.71 752.752C512.726 776.905 514.019 808.591 509.128 831.547C505.115 850.031 497.495 867.533 486.712 883.073C464.701 914.903 430.848 936.578 392.726 943.255C355.015 949.836 316.231 941.285 284.778 919.474C253.276 897.52 231.796 863.951 225.068 826.15C218.081 787.988 226.8 748.622 249.247 716.976C276.661 678.079 310.319 663.574 355.226 655.746Z" fill="#08D082"/>
<path d="M639.686 367.328C648.447 366.265 657.287 366.005 666.095 366.551C742.689 371.292 802.304 434.933 802.033 511.671C801.754 588.407 741.684 651.618 665.05 655.808C588.416 660 521.812 603.717 513.163 527.467C511.958 516.828 511.934 506.086 513.099 495.441C520.4 428.515 572.842 375.436 639.686 367.328Z" fill="#19BCFE"/>
</g>
<defs>
<clipPath id="clip0_2194_283">
<rect width="1024" height="1024" rx="512" fill="white"/>
</clipPath>
</defs>
</svg>
