<svg width="1024" height="1024" viewBox="0 0 1024 1024" fill="none" xmlns="http://www.w3.org/2000/svg">
<g clip-path="url(#clip0_2201_460)">
<path d="M170.043 197H186.676C194.984 198.581 202.697 199.679 210.598 203.186C227.294 210.599 242.404 223.958 257.284 234.836C264.755 240.298 276.508 248.754 283.244 254.412C291.338 260.012 300.612 267.338 308.562 273.299L356.74 309.434L512.057 425.944C521.352 418.431 532.241 410.586 541.876 403.361L594.187 364.121L741.039 254.057C758.676 239.808 777.966 226.671 795.959 212.818C808.9 202.854 821.639 200.01 837.073 197H853.906C859.755 198.128 863.459 198.431 869.443 200.117C889.065 205.611 906.111 217.865 917.571 234.714C924.888 245.565 929.732 257.802 931.241 270.747C931.409 272.165 931.672 274.497 932 275.834V359.346L802.772 456.298L761.527 487.227C755.895 491.45 746.683 498.858 741.08 502.472L740.933 502.737C734.83 506.846 726.065 513.862 719.998 518.414L678.355 549.664L569.225 631.495C550.415 645.6 531.011 660.661 512.012 674.323C505.438 669.828 497.446 663.467 490.978 658.61L451.627 629.091L341.74 546.665C322.582 532.291 302.394 516.605 283.032 502.723L282.837 502.464L92 359.331V275.782C95.2178 258.5 95.9889 249.977 106.687 234.334C117.795 218.262 133.984 206.391 152.652 200.628C158.575 198.829 164.028 198.138 170.043 197Z" fill="#EB4337"/>
<path d="M837.073 197H853.906C859.755 198.128 863.458 198.431 869.443 200.117C889.064 205.611 906.111 217.865 917.57 234.714C924.887 245.565 929.731 257.802 931.241 270.747C931.409 272.165 931.671 274.497 932 275.834V359.346L802.772 456.298L761.526 487.227C755.895 491.45 746.683 498.858 741.08 502.473L741.039 254.057C758.676 239.808 777.965 226.671 795.959 212.818C808.899 202.854 821.639 200.01 837.073 197Z" fill="#FCBC03"/>
<path d="M170.043 197H186.676C194.984 198.581 202.697 199.679 210.598 203.186C227.294 210.599 242.404 223.958 257.284 234.836C264.755 240.298 276.508 248.754 283.244 254.412C282.615 256.498 282.839 267.926 282.842 270.975L282.874 303.843L282.872 436.69L282.869 480.603C282.868 487.158 283.139 496.055 282.837 502.464L92 359.331V275.782C95.2178 258.5 95.9889 249.977 106.687 234.334C117.795 218.262 133.984 206.391 152.652 200.628C158.575 198.829 164.028 198.138 170.043 197Z" fill="#C62220"/>
<path d="M92 359.331L282.837 502.464L283.032 502.724L283.009 827H142.664C132.659 824.826 124.486 822.71 116.003 816.447C100.675 805.127 94.9461 792.682 92 774.873V359.331Z" fill="#4185F5"/>
<path d="M932.003 359.347V775.275C926.269 806.218 910.949 820.713 880.655 827H741.137C740.681 817.632 741.03 805.574 741.03 795.972V736.84V584.557C741.034 557.572 741.432 529.632 740.936 502.737L741.083 502.473C746.686 498.858 755.898 491.451 761.53 487.227L802.775 456.298L932.003 359.347Z" fill="#33A953"/>
</g>
<defs>
<clipPath id="clip0_2201_460">
<rect width="840" height="630" fill="white" transform="translate(92 197)"/>
</clipPath>
</defs>
</svg>
