<svg width="1024" height="1024" viewBox="0 0 1024 1024" fill="none" xmlns="http://www.w3.org/2000/svg">
<g clip-path="url(#clip0_2194_273)">
<g clip-path="url(#clip1_2194_273)">
<path d="M-57 -29H1046V1074H-57V-29Z" fill="#B3C349"/>
<path d="M538.684 128.525C607.611 127.744 660.66 136.728 722.429 168.144C727.034 170.304 731.714 172.904 736.4 174.808C742.017 177.09 743.978 177.098 748.588 181.078C758.762 181.011 757.248 183.482 764.928 189.479C767.68 191.627 775.08 192.369 777.892 195.275C780.024 197.479 781.479 200.347 782.997 202.928C789.972 205.593 794.991 215.553 793.677 222.635C789.886 243.072 759.634 253.582 741.656 247.173C734.806 244.73 727.153 241.22 720.28 238.485C711.609 234.971 702.858 231.673 694.025 228.595C627.786 205.269 556.285 201.221 487.832 216.921C369.737 243.134 256.974 326.448 227.485 449.043C225.973 452.755 229.763 465.399 227.598 468.047C219.146 478.385 216.505 473.101 214.71 488.831C212.311 509.853 211.866 530.815 215.182 551.835C216.084 557.55 218.09 563.49 221.434 568.3C224.097 571.913 231.16 575.683 229.664 580.811C229.256 582.211 225.967 587.171 225.04 588.695C225.405 598.481 229.545 625.652 234.761 634.162C239.941 642.612 252.793 645.951 248.169 660.078C245.229 669.056 257.568 668.474 261.36 673.025C267.261 679.628 270.791 688.38 276.312 695.554L276.857 695.392C277.279 694.003 277.417 692.996 278.445 691.988C280.849 692.942 285.327 699.534 286.727 701.844C290.036 707.305 293.076 712.244 293.082 718.793C305.368 731.811 314.576 741.575 328.047 753.284C367.699 787.752 411.554 806.441 463.858 811.234C483.712 813.469 503.574 813.701 523.48 812.279C597.927 806.958 672.1 778.801 721.977 721.362C760.501 676.995 778.005 619.911 772.048 561.266C766.899 510.602 746.816 461.514 706.935 428.22C686.178 410.829 658.964 399.366 631.814 397.071C623.989 396.409 615.808 398.434 607.74 397.716C601.519 397.163 596.618 394.184 591.184 392.933C579.68 390.525 567.891 391.552 556.155 392.592C481.213 399.241 380.409 466.598 408.799 552.869C409.99 556.489 414.317 561.632 414.789 565.37C415.473 570.782 407.585 574.488 408.157 579.83C410.62 584.349 416.305 583.213 420.756 587.09C432.509 597.334 437.993 612.721 453.134 619.534C460.871 623.013 472.522 623.573 480.556 620.627C485.177 618.925 487.094 615.586 488.947 611.364C486.604 604.675 484.46 604.497 482.71 599.531C483.092 597.291 483.566 597.366 485.22 595.298C479.622 587.204 481.773 587.769 486.291 581.085C487.439 579.389 486.065 576.066 485.387 574.046L487.218 567.68C480.341 547.112 495.932 564.104 493.218 544.392C497.795 535.581 502.093 527.239 507.145 518.654C510.183 516.693 514.507 517.221 518.175 517.286C518.116 514.48 517.647 511.518 519.268 509.34C521.283 507.97 524.218 507.888 526.755 507.548L530.557 503.911C543.526 500.608 556.823 503.782 567.277 496.939C570.088 498.807 572.835 500.425 575.732 502.144C578.458 500.886 580.3 500.157 583.106 499.135L587.43 502.429C607.923 503.166 624.43 509.918 639.931 523.409C655.431 536.895 666.418 555.794 663.008 576.814C661.775 585.615 659.023 594.722 658.312 603.538C657.714 611.579 662.141 621.241 658.037 628.765C654.068 636.041 651.408 644.47 647.497 651.649C644.88 656.448 638.751 662.017 635.019 666.309C630.554 671.447 625.664 676.634 621.08 681.739C600.652 703.746 575.948 709.891 546.569 710.187C541.517 710.51 536.002 713.44 530.977 713.537C458.367 714.959 383.324 683.824 345.569 619.308C317.815 571.881 312.703 512.907 330.81 461.061C347.522 413.21 382.94 373.729 426.463 348.121C557.389 271.085 754.62 300.874 833.634 438.707C872.67 506.796 881.147 590.65 862.83 666.557C847.244 730.577 808.908 785.889 758.788 827.774C750.214 834.931 742.583 843.392 733.497 849.909C721.444 858.499 707.317 862.69 695.221 871.312C666.752 891.606 629.224 900.611 595.385 906.95C553.646 914.667 510.554 917.969 468.152 915.518C457.671 914.91 451.427 916.143 441.05 913.38C439.524 914.226 437.777 915.427 436.286 916.385C429.454 913.52 425.116 909.858 418.944 906.998C412.578 908.425 411.831 906.96 406.803 903.271C406.595 903.266 404.352 903.352 404.026 903.384C399.161 903.89 396.931 900.465 391.423 899.006C387.763 898.036 379.569 896.862 376.796 895.677C363.776 890.108 350.111 884.119 337.418 877.71C303.253 860.471 262.371 844.48 234.484 818.096C224.362 808.52 219.539 796.364 211.37 785.717C207.502 780.67 198.362 775.801 194.443 769.926C191.019 764.788 193.372 758.222 189.84 753.951C186.63 750.068 181.16 746.153 177.157 742.507C165.373 732.333 162.213 717.792 155.919 704.413C129.844 648.978 118.119 585.927 116.95 524.691C115.926 471.002 129.125 409.031 148.809 358.877C150.464 354.661 153.553 349.494 156.13 345.683C159.242 341.39 162.817 337.977 165.399 333.16C168.444 327.478 169.408 313.937 172.175 309.079C181.33 293.003 198.963 273.793 211.739 260.641C280.112 190.253 371.48 147.189 468.126 133.167C491.602 129.762 515.068 128.909 538.684 128.525Z" fill="#1F1E1F"/>
</g>
</g>
<defs>
<clipPath id="clip0_2194_273">
<rect width="1024" height="1024" rx="512" fill="white"/>
</clipPath>
<clipPath id="clip1_2194_273">
<rect width="1103" height="1103" fill="white" transform="translate(-57 -29)"/>
</clipPath>
</defs>
</svg>
