<svg width="1024" height="1024" viewBox="0 0 1024 1024" fill="none" xmlns="http://www.w3.org/2000/svg">
<path d="M639.725 124H658.343L658.683 124.068C661.626 124.636 664.92 124.783 667.991 125.249C676.427 126.446 684.606 129.033 692.194 132.904C704.019 139.055 714.992 147.309 725.897 154.995L768.128 184.69L828.947 227.426C842.04 236.617 855.376 245.745 868.053 255.492C872.222 258.699 876.497 262.5 879.564 266.755C882.65 271.034 883.854 277.864 883.907 283.131C884.051 296.816 883.976 310.654 883.976 324.357V404.066L883.972 647.137L883.979 766.631V799.289C883.972 820.74 885.437 845.594 865.062 859.014C855.467 865.337 843.271 868.052 831.927 868.908C818.174 869.945 804.357 870.653 790.593 871.475L704.663 876.67L421.65 893.758L350.723 898.079C347.033 898.321 332.519 898.764 330.109 899.472H312.158C310.381 898.984 306.187 898.624 304.243 898.393C290.291 896.712 278.696 889.552 269.834 878.749C262.569 869.896 255.584 860.559 248.544 851.422L209.351 800.547L177.909 759.766C162.79 740.145 145.59 719.637 141.265 694.445C139.654 685.066 140.066 674.877 140.065 665.312L140.07 629.333L140.079 500.268L140.077 301.884L140.064 239.002C140.054 227.484 139.816 215.331 140.327 203.872C140.975 193.84 143.786 184.124 149.589 175.879C163.826 155.652 191.768 157.048 213.821 155.443L278.579 150.672L527.47 132.356L606.328 126.527L626.994 124.984C630.951 124.728 635.946 124.717 639.725 124ZM318.3 839.911C327.32 841.119 336.993 840.187 346.111 839.657L375.922 837.923L487.786 831.452L699.555 819.206L768.242 815.242C780.695 814.53 793.187 813.97 805.622 812.94C835.357 810.471 832.699 784.984 832.684 762.424L832.676 726.138L832.669 603.676L832.665 418.35L832.684 358.232C832.688 347.626 832.813 336.803 832.551 326.201C832.396 319.902 830.916 312.155 826.841 307.152C823.823 303.437 819.42 301.116 814.649 300.726C813.346 300.611 811.551 300.466 810.272 300.622L477.287 320.082L368.269 326.456L334.648 328.407C323.588 329.049 308.042 328.027 300.071 336.655C295.756 341.325 294.509 348.453 294.136 354.607C293.75 364.086 293.91 374.053 293.912 383.607L293.927 435.736L293.933 596.769V741.405L293.913 787.544C293.912 791.656 293.911 795.764 293.913 799.876C293.921 811.489 293.064 825.465 302.889 833.746C307.21 837.389 312.766 839.188 318.3 839.911ZM343.796 275.169L628.907 258.091L725.856 252.269C741.903 251.305 757.988 250.362 774.035 249.367C775.016 249.307 776.53 249.091 777.216 248.385C777.821 247.764 778.23 246.94 778.052 246.083C777.606 243.968 775.027 241.083 773.41 239.8C769.003 236.298 764.194 232.968 759.639 229.685L733.387 210.778L705.874 190.825C682.493 173.876 669.846 166.355 639.406 167.697L354.69 188.501L265.181 195.047L237.723 197.04C230.24 197.565 206.848 196.786 206.62 207.635C206.548 211.061 211.023 214.51 213.544 216.526L253.316 248.027C272.581 263.362 286.836 278.222 312.95 276.756C323.154 276.182 333.532 276.231 343.796 275.169Z" fill="black"/>
<path d="M750.153 383.97L757.23 383.594C758.582 390.693 759.237 399.398 754.89 405.66C753.349 407.88 751.244 409.646 748.786 410.771C744.875 412.571 726.234 415.828 721.035 416.842V748.305C698.343 761.338 659.38 775.2 637.293 754.836C623.355 741.981 613.234 724.427 603.12 708.554L573.464 662.003L472.005 502.649L472.003 727.293C487.471 730.788 503.611 734.2 518.958 738.005C514.747 763.303 495.54 764.231 474.386 765.552C442.736 767.525 410.864 768.79 379.257 771.077C378.133 771.114 378.077 771.205 377.06 770.793C372.952 765.7 378.45 750.656 384.753 748.244C394.326 744.586 404.678 742.174 414.614 739.425L414.647 442.506C402.849 441.143 388.966 440.374 376.978 439.43C374.607 424.438 381.308 409.542 397.036 405.571C401.885 404.347 408.166 404.279 413.207 403.944L437.634 402.318L486.131 399.032C495.337 398.41 505.149 397.583 514.331 397.269C520.533 406.103 527.103 416.711 533.078 425.836L569.466 481.437L668.365 632.624C668.028 608.288 668.304 583.339 668.301 558.961L668.32 424.4C656.688 422.495 640.932 421.191 628.948 419.843C628.785 418.635 628.66 417.423 628.577 416.207C628.183 409.721 630.387 403.346 634.692 398.482C640.833 391.578 648.842 389.817 657.653 389.339C665.714 388.903 673.799 388.395 681.86 387.928L750.153 383.97Z" fill="black"/>
</svg>
