<svg width="1024" height="1024" viewBox="0 0 1024 1024" fill="none" xmlns="http://www.w3.org/2000/svg">
<g clip-path="url(#clip0_2194_279)">
<path d="M386.971 535.463C387.142 535.43 387.312 535.395 387.482 535.361C435.814 529.638 480.763 563.72 487.782 611.866C490.457 630.226 489.436 647.264 489.417 664.816L489.351 747.736L489.464 820.305C489.483 832.591 490.117 852.739 488.423 864.118C486.3 878.927 480.616 893.008 471.856 905.152C457.883 924.696 436.58 937.747 412.812 941.319C357.546 950.912 307.989 907.089 307.682 851.898C307.616 840.009 307.593 828.13 307.604 816.241L307.668 737.823L307.582 659.454C307.572 645.066 306.74 628.267 308.516 614.202C313.969 570.999 344.662 542.489 386.971 535.463Z" fill="#E01E5A"/>
<path d="M170.171 307.811C179.785 306.507 197.09 307.522 207.341 307.536L279.014 307.618L359.082 307.52C395.833 307.482 429.905 303.863 459.424 331.233C477.763 348.445 488.462 372.269 489.14 397.407C490.589 447.047 449.337 487.773 400.218 489.036C384.559 489.748 365.164 489.272 349.189 489.28L255.717 489.302L198.688 489.298C165.807 489.29 138.687 490.433 111.907 466.719C93.3379 449.973 82.3174 426.443 81.3428 401.461C80.406 377.601 88.9914 354.347 105.21 336.82C122.391 318.369 145.16 308.763 170.171 307.811Z" fill="#35C5EF"/>
<path d="M618.413 81.7445C639.351 80.4328 660.602 85.847 677.788 98.0836C697.951 112.562 711.431 134.548 715.184 159.078C716.933 170.41 716.328 192.433 716.328 204.731L716.271 283.351L716.347 365.286C716.347 373.634 715.997 382.733 716.338 391.021C718.37 440.485 686.768 481.308 635.769 488.78C611.276 489.529 593.891 487.084 573.17 472.56C531.85 443.59 534.743 405.221 534.715 361.569L534.686 282.467L534.705 206.315C534.724 175.08 531.907 145.98 551.815 118.896C569.672 94.6105 589.789 86.587 618.413 81.7445Z" fill="#2DB77D"/>
<path d="M614.71 535.453C621.554 534.415 643.324 534.861 651.53 534.854L726.313 534.83L815.986 534.852C847.531 534.871 877.8 531.487 904.826 552.001C971.036 602.266 946.061 702.614 862.41 715.325C847.266 717.087 826.942 716.467 811.335 716.473L729.896 716.48L660.113 716.463C629.022 716.486 600.161 718.543 573.192 699.384C553.283 685.071 539.926 663.404 536.069 639.197C527.391 587.193 563.701 543.365 614.71 535.453Z" fill="#ECB22F"/>
<path d="M256.847 534.678C259.47 534.332 259.439 534.188 261.829 535.11C264.775 540.752 263.234 569.792 263.174 577.586C262.895 613.991 268.243 650.039 243.893 680.837C228.059 700.865 208.341 712.038 182.739 715.382C156.076 718.577 133.833 710.171 113.113 694.238C112.212 693.393 111.318 692.542 110.429 691.685C92.4534 674.337 81.6881 651.51 81.4376 626.357C81.397 601.836 91.042 578.29 108.276 560.839C136.493 532.748 166.682 534.591 202.854 534.67L256.847 534.678Z" fill="#E01E5A"/>
<path d="M534.67 761.128C562.49 761.072 624.077 758.194 647.634 764.122C663.431 768.097 676.996 775.525 688.623 786.937C705.885 803.88 716.5 828.377 716.491 852.693C716.472 877.028 705.525 899.984 688.462 916.929C656.36 952.018 594.952 949.656 561.961 916.437C550.494 905.068 542.289 890.836 538.214 875.214C532.703 854.46 534.632 786.799 534.67 761.128Z" fill="#ECB22F"/>
<path d="M390.784 81.8131C393.256 81.5126 395.843 81.455 398.332 81.4058C420.256 80.9749 445.283 91.1049 460.91 106.42C472.56 117.839 481.012 131.482 485.444 147.233C492.442 172.093 489.323 234.197 489.455 263.098C463.861 262.057 431.965 262.827 405.89 262.836C384.213 262.61 365.969 259.565 347.552 247.043C287.167 205.984 297.432 113.032 366.255 87.4995C374.82 84.3223 381.844 83.2921 390.784 81.8131Z" fill="#35C5EF"/>
<path d="M850.903 307.838C873.515 308.115 895.266 315.209 912.121 330.714C930.904 347.708 941.889 371.651 942.532 396.963C943.231 420.677 933.305 444.376 917.018 461.465C900.768 478.436 878.487 488.315 855.005 488.958C824.112 489.502 791.915 489.023 760.871 489.141C762.157 474.489 761.23 457.526 761.353 442.81C761.675 403.895 755.974 365.74 786.309 335.125C803.675 317.593 826.542 308.566 850.903 307.838Z" fill="#2DB77D"/>
</g>
<defs>
<clipPath id="clip0_2194_279">
<rect width="1024" height="1024" rx="512" fill="white"/>
</clipPath>
</defs>
</svg>
