<svg width="1024" height="1024" viewBox="0 0 1024 1024" fill="none" xmlns="http://www.w3.org/2000/svg">
<g clip-path="url(#clip0_2194_277)">
<path d="M282.841 106H741.457C743.261 106.928 745.739 107.318 747.762 107.534C759.934 108.835 771.281 111.349 782.946 115.053C828.716 129.776 867.42 160.912 891.61 202.466C894.599 207.568 900.13 217.817 902.331 223.138C907.136 234.424 910.867 246.137 913.472 258.122C914.444 262.753 916.811 279.506 918 282.206V742.342L917.829 742.813C916.121 747.734 916.259 752.071 915.336 757.15C913.777 766.154 911.601 775.04 908.817 783.742C895.967 822.939 871.175 857.128 837.91 881.519C815.981 897.288 790.443 908.552 764.049 914.035C758.102 915.272 748.749 915.807 743.357 918H280.975C277.868 916.882 274.785 916.454 271.536 915.982C256.345 913.781 241.88 909.975 227.659 904.194C201.355 893.501 177.596 877.84 158.638 856.585C156.524 854.214 153.891 852.069 151.849 849.595C135.468 830.214 123.021 807.706 115.135 783.691C112.9 776.935 111.109 770.036 109.777 763.042C108.886 758.352 107.872 745.902 106 742.314V281.392C107.723 277.829 108.721 267.048 109.565 262.567C122.568 193.533 174.155 136.52 240.645 115.029C247.791 112.745 255.069 110.9 262.44 109.503C267.172 108.585 279.768 107.779 282.841 106Z" fill="#1B1B1B"/>
<path d="M716.999 273.065C725.984 272.467 733.981 273.876 741.419 279.273C748.67 284.499 753.527 292.415 754.899 301.249C755.755 306.7 755.502 315.205 755.502 320.94L755.506 350.099L755.502 457.167L755.486 632.36L755.494 687.84C755.514 697.768 755.914 708.073 755.363 717.945C754.364 735.743 742.691 748.058 725.405 750.612C715.481 751.904 707.733 749.644 699.641 743.931C685.205 733.745 686.034 720.284 686.022 704.604V673.963V565.525L686.03 389.663V334.492C686.014 324.824 685.855 314.717 686.101 305.118C686.24 299.621 689.344 290.589 692.889 286.379C699.586 278.428 706.869 274.319 716.999 273.065Z" fill="#FEFEEC"/>
<path d="M299.93 273.066C309.146 272.11 316.587 274.606 324.071 279.834C339.056 290.301 337.948 305.116 337.95 321.339L337.951 351.491L337.95 458.781L337.935 633.313L337.943 687.29C337.961 697.428 338.244 707.745 337.808 717.863C337.022 736.085 324.489 748.475 306.715 750.981C297.814 751.854 288.728 749.526 281.567 744.134C266.706 732.941 268.512 716.606 268.509 700.184L268.505 662.177L268.506 537.07L268.501 381.005L268.494 331.339C268.494 322.51 268.127 313.187 268.751 304.408C270.011 286.69 282.898 275.046 299.93 273.066Z" fill="#FEFEEC"/>
<path d="M508.827 351.177C526.677 349.781 542.485 360.78 546.093 378.828C547.064 383.688 546.691 389.743 546.679 394.743L546.672 413.964V485.085V586.071L546.687 618.532C546.687 631.136 548.313 643.685 540.653 654.41C535.011 662.351 526.455 667.735 516.856 669.385C506.29 670.408 498.946 668.37 490.497 661.939C476.51 651.293 477.3 639.137 477.319 623.325L477.337 596.495L477.338 508.614L477.326 423.199L477.31 396.692C477.309 392.673 477.135 385.418 477.556 381.581C478.299 375.111 480.86 368.984 484.941 363.909C491.179 356.088 498.995 352.226 508.827 351.177Z" fill="#FEFEEC"/>
<path d="M404.808 491.942C414.252 491.214 420.54 493.719 428.33 498.875C445.177 510.025 442.526 529.433 442.52 546.91L442.511 591.705L442.523 643.858C442.523 658.576 444.819 676.314 435.951 688.621C429.386 697.729 421.681 701.337 410.904 703.093C397.932 703.834 387.654 699.529 379.645 689.157C370.611 677.464 372.647 660.285 372.656 646.17L372.681 598.12L372.651 549.519C372.646 542.743 372.32 528.465 373.133 522.134C373.955 516.032 376.359 510.251 380.108 505.366C386.189 497.461 395.1 493.273 404.808 491.942Z" fill="#FEFEEC"/>
<path d="M613.679 491.919C622.171 491.376 630.585 493.861 637.42 498.934C644.596 504.209 649.37 512.131 650.687 520.937C651.487 526.23 651.19 540.087 651.19 545.903L651.186 591.106L651.202 644.62C651.206 651.824 651.602 666.744 650.79 673.266C650.104 678.908 647.943 684.268 644.525 688.808C637.642 697.955 630.747 701.567 619.67 703.089C600.036 704.18 583.383 691.457 581.833 671.256C581.06 661.149 581.405 650.781 581.405 640.631L581.409 589.334V546.764C581.413 538.311 581.02 528.716 582.146 520.421C584.204 505.244 598.759 493.265 613.679 491.919Z" fill="#FEFEEC"/>
</g>
<defs>
<clipPath id="clip0_2194_277">
<rect width="812" height="812" fill="white" transform="translate(106 106)"/>
</clipPath>
</defs>
</svg>
